<?xml version="1.0" encoding="iso-8859-1"?>
<!-- Generator: Adobe Illustrator 17.1.0, SVG Export Plug-In . SVG Version: 6.00 Build 0)  -->
<!DOCTYPE svg PUBLIC "-//W3C//DTD SVG 1.1//EN" "http://www.w3.org/Graphics/SVG/1.1/DTD/svg11.dtd">
<svg version="1.1" id="Capa_1" xmlns:sketch="http://www.bohemiancoding.com/sketch/ns"
	 xmlns="http://www.w3.org/2000/svg" xmlns:xlink="http://www.w3.org/1999/xlink" x="0px" y="0px" viewBox="0 0 40 73"
	 style="enable-background:new 0 0 40 73;" xml:space="preserve">
<path d="M14.992,28.726c0-2.863,2.321-5.184,5.185-5.184c2.863,0,5.185,2.321,5.185,5.184c0,2.864-2.321,5.185-5.185,5.185
	S14.992,31.59,14.992,28.726L14.992,28.726z M35.433,21.159c-0.942-0.359-1.994,0.111-2.354,1.051l-3.544,9.264l-6.842,4.839
	c-0.02-0.001-0.038-0.006-0.057-0.006H20.3h-2.336c-0.019,0-0.037,0.005-0.057,0.006l-6.842-4.839L7.521,22.21
	c-0.36-0.94-1.412-1.41-2.354-1.051c-0.94,0.36-1.411,1.414-1.051,2.354l3.742,9.781c0.128,0.337,0.355,0.629,0.65,0.837
	l8.039,5.686v15.596c0.004,0.521,0.234,1.759-0.363,2.984l-5.829,11.221c-0.464,0.893-0.116,1.993,0.778,2.458
	c0.268,0.139,0.555,0.206,0.838,0.206c0.659,0,1.295-0.359,1.619-0.984l6.383-12.286c0.108,0.01,0.217,0.018,0.327,0.018
	s0.219-0.008,0.327-0.018l6.383,12.286c0.324,0.625,0.96,0.984,1.619,0.984c0.283,0,0.57-0.067,0.838-0.206
	c0.894-0.465,1.242-1.565,0.778-2.458l-5.829-11.221c-0.598-1.225-0.367-2.463-0.363-2.984V39.817l8.039-5.686
	c0.295-0.208,0.522-0.5,0.65-0.837l3.742-9.781C36.844,22.573,36.373,21.519,35.433,21.159z M36.173,11.013V0.997
	c0-0.511-0.413-0.925-0.924-0.925c-0.511,0-0.925,0.414-0.925,0.925v10.016c-2.065,0.428-3.621,2.26-3.621,4.45
	c0,2.506,2.039,4.546,4.546,4.546c2.506,0,4.546-2.04,4.546-4.546C39.795,13.273,38.238,11.441,36.173,11.013z M35.249,18.16
	c-1.487,0-2.697-1.21-2.697-2.697c0-1.486,1.21-2.696,2.697-2.696s2.696,1.21,2.696,2.696C37.945,16.95,36.736,18.16,35.249,18.16z
	 M5.509,11.013V0.997c0-0.511-0.414-0.925-0.925-0.925S3.659,0.486,3.659,0.997v10.016c-2.064,0.428-3.621,2.26-3.621,4.45
	c0,2.506,2.04,4.546,4.546,4.546c2.507,0,4.546-2.04,4.546-4.546C9.13,13.273,7.574,11.441,5.509,11.013z M4.584,18.16
	c-1.487,0-2.697-1.21-2.697-2.697c0-1.486,1.21-2.696,2.697-2.696s2.697,1.21,2.697,2.696C7.281,16.95,6.071,18.16,4.584,18.16z"/>
</svg>
