<?xml version="1.0" encoding="utf-8"?>
<!-- Generator: Adobe Illustrator 17.0.0, SVG Export Plug-In . SVG Version: 6.00 Build 0)  -->
<!DOCTYPE svg PUBLIC "-//W3C//DTD SVG 1.1//EN" "http://www.w3.org/Graphics/SVG/1.1/DTD/svg11.dtd">
<svg version="1.1" id="Capa_1" xmlns="http://www.w3.org/2000/svg" xmlns:xlink="http://www.w3.org/1999/xlink" x="0px" y="0px"
	 width="26.299px" height="26.607px" viewBox="0 0 26.299 26.607" enable-background="new 0 0 26.299 26.607" xml:space="preserve">
<path d="M4.572,12.398V9.789c0-0.301,0.096-0.596,0.26-0.875c0.92,1.595,4.291,2.777,8.318,2.777c4.03,0,7.399-1.181,8.32-2.777
	c0.162,0.279,0.26,0.574,0.26,0.875v2.609c0,2.017-3.842,3.652-8.58,3.652C8.416,16.05,4.572,14.416,4.572,12.398z M13.15,21.439
	c4.738,0,8.58-1.633,8.58-3.648v-2.613c0-0.303-0.098-0.592-0.26-0.871c-0.921,1.593-4.29,2.773-8.32,2.773
	c-4.027,0-7.398-1.18-8.318-2.773c-0.164,0.279-0.26,0.568-0.26,0.871v2.613C4.572,19.807,8.416,21.439,13.15,21.439z M13.15,10.794
	c4.738,0,8.58-1.639,8.58-3.654V4.529c0-0.287-0.089-0.566-0.236-0.834c-0.164,1.477-3.832,2.658-8.344,2.658
	c-4.512,0-8.175-1.181-8.341-2.658C4.66,3.963,4.572,4.242,4.572,4.529V7.14C4.572,9.156,8.416,10.794,13.15,10.794z M13.15,5.526
	c4.618,0,8.361-1.237,8.361-2.763C21.511,1.237,17.768,0,13.15,0S4.789,1.237,4.789,2.763C4.789,4.289,8.532,5.526,13.15,5.526z
	 M13.736,25.527v-3.392h-1.172v3.392H0v1.08h26.299v-1.08H13.736z"/>
</svg>
