<?xml version="1.0" encoding="utf-8"?>
<!-- Generator: Adobe Illustrator 16.0.0, SVG Export Plug-In . SVG Version: 6.00 Build 0)  -->
<!DOCTYPE svg PUBLIC "-//W3C//DTD SVG 1.1//EN" "http://www.w3.org/Graphics/SVG/1.1/DTD/svg11.dtd">
<svg version="1.1" id="Layer_1" xmlns="http://www.w3.org/2000/svg" xmlns:xlink="http://www.w3.org/1999/xlink" x="0px" y="0px"
	 width="26px" height="26px" viewBox="0 0 26 26" enable-background="new 0 0 26 26" xml:space="preserve">
<rect fill="none" width="26" height="26"/>
<path fill="#000000" d="M6,21c-0.551,0-1-0.449-1-1V5c0-0.551,0.449-1,1-1h2c0.551,0,1,0.449,1,1v15c0,0.551-0.449,1-1,1H6z"/>
<path fill="#000000" d="M3,19c-0.551,0-1-0.449-1-1V7c0-0.551,0.449-1,1-1h1v13H3z"/>
<path fill="#000000" d="M18,21c-0.551,0-1-0.449-1-1V5c0-0.551,0.449-1,1-1h2c0.551,0,1,0.449,1,1v15c0,0.551-0.449,1-1,1H18z"/>
<path fill="#000000" d="M22,19V6h1c0.551,0,1,0.449,1,1v11c0,0.551-0.449,1-1,1H22z"/>
<g>
	<path fill="#000000" d="M25,11h-2v3h2c0.551,0,1-0.449,1-1v-1C26,11.449,25.551,11,25,11z"/>
	<path fill="#000000" d="M3,11H1c-0.551,0-1,0.449-1,1v1c0,0.551,0.449,1,1,1h2V11z"/>
	<rect x="8" y="11" fill="#000000" width="10" height="3"/>
</g>
</svg>
