<?xml version="1.0" encoding="utf-8"?>
<!-- Generator: Adobe Illustrator 16.0.4, SVG Export Plug-In . SVG Version: 6.00 Build 0)  -->
<!DOCTYPE svg PUBLIC "-//W3C//DTD SVG 1.1//EN" "http://www.w3.org/Graphics/SVG/1.1/DTD/svg11.dtd">
<svg version="1.1" id="Layer_1" xmlns="http://www.w3.org/2000/svg" xmlns:xlink="http://www.w3.org/1999/xlink" x="0px" y="0px"
	 width="50px" height="50px" viewBox="0 0 50 50" enable-background="new 0 0 50 50" xml:space="preserve">
<path d="M26.789,21.354H14.871c-0.276,0-0.5-0.225-0.5-0.5c0-0.276,0.224-0.5,0.5-0.5h11.918c0.275,0,0.5,0.224,0.5,0.5
	C27.289,21.13,27.064,21.354,26.789,21.354z M21.523,25.353c0-0.276-0.224-0.5-0.5-0.5h-6.152c-0.276,0-0.5,0.224-0.5,0.5
	c0,0.275,0.224,0.5,0.5,0.5h6.152C21.3,25.853,21.523,25.628,21.523,25.353z M14.871,29.35c-0.276,0-0.5,0.224-0.5,0.5
	c0,0.275,0.224,0.5,0.5,0.5h3.154c0.276,0,0.5-0.225,0.5-0.5c0-0.276-0.224-0.5-0.5-0.5H14.871z M39.113,33.52
	c0,0.275-0.225,0.5-0.5,0.5h-4.09c-0.176,0-0.338-0.093-0.428-0.244l-0.486-0.814l-1.258,1.938c-0.094,0.143-0.252,0.228-0.42,0.228
	c-0.018,0-0.037-0.001-0.055-0.003c-0.188-0.021-0.348-0.146-0.414-0.324l-1.229-3.323l-0.826,2.217
	c-0.073,0.196-0.26,0.326-0.469,0.326h-2.396c-0.276,0-0.5-0.225-0.5-0.5c0-0.276,0.224-0.5,0.5-0.5h2.047l1.175-3.155
	c0.072-0.196,0.26-0.326,0.469-0.326l0,0c0.209,0,0.396,0.13,0.468,0.327l1.351,3.653l1.152-1.774
	c0.094-0.145,0.244-0.24,0.429-0.228c0.173,0.003,0.332,0.095,0.421,0.243l0.752,1.26h2.317c0.206-0.374,0.36-0.73,0.433-1.051
	c0.144-0.443,0.209-0.854,0.209-1.268c0-1.442-0.787-2.774-2.052-3.475c-0.585-0.321-1.247-0.492-1.913-0.492
	c-1.184,0-2.297,0.522-3.056,1.436c-0.095,0.114-0.236,0.181-0.384,0.181l0,0c-0.149,0-0.291-0.066-0.385-0.182
	c-1.187-1.433-3.33-1.843-4.968-0.941c-1.263,0.699-2.049,2.03-2.049,3.474c0,0.414,0.066,0.825,0.196,1.221
	c0.643,2.877,5.949,6.52,7.205,7.348c0.826-0.543,3.396-2.299,5.248-4.254c0.191-0.202,0.508-0.208,0.707-0.021
	c0.201,0.19,0.209,0.506,0.021,0.707c-2.312,2.442-5.571,4.5-5.708,4.586c-0.082,0.051-0.174,0.077-0.266,0.077
	s-0.186-0.025-0.266-0.077c-0.291-0.182-7.101-4.496-7.904-8.102c-0.15-0.45-0.232-0.966-0.232-1.485
	c0-1.806,0.983-3.472,2.566-4.35c1.648-0.905,3.738-0.75,5.248,0.289V15.207h-3.721v1.074c0,0.276-0.225,0.5-0.5,0.5h-9.446
	c-0.276,0-0.5-0.224-0.5-0.5v-1.074h-3.722v22.387h12.472c0.276,0,0.5,0.225,0.5,0.5c0,0.276-0.224,0.5-0.5,0.5H11.387
	c-0.276,0-0.5-0.224-0.5-0.5V14.707c0-0.276,0.224-0.5,0.5-0.5h4.222v-1.374c0-0.275,0.224-0.5,0.5-0.5h2.049
	c0-0.008,0-0.017,0-0.024c0-1.475,1.2-2.674,2.674-2.674s2.674,1.199,2.674,2.674c0,0.008,0,0.017,0,0.024h2.049
	c0.275,0,0.5,0.225,0.5,0.5v1.374h4.221c0.277,0,0.5,0.224,0.5,0.5v12.077c1.522-1.159,3.711-1.375,5.425-0.434
	c1.584,0.878,2.567,2.544,2.567,4.351c0,0.519-0.082,1.035-0.246,1.532c-0.051,0.238-0.146,0.506-0.271,0.786h0.364
	C38.889,33.02,39.113,33.242,39.113,33.52z M25.052,13.334h-2.12c-0.154,0-0.299-0.07-0.394-0.191
	c-0.095-0.121-0.128-0.279-0.091-0.43c0.039-0.154,0.057-0.283,0.057-0.403c0-0.924-0.751-1.674-1.674-1.674
	s-1.674,0.75-1.674,1.674c0,0.123,0.018,0.25,0.056,0.402c0.038,0.149,0.004,0.309-0.09,0.431c-0.094,0.122-0.24,0.191-0.395,0.191
	h-2.12v2.448h8.445V13.334z"/>
</svg>
