<?xml version="1.0" encoding="utf-8"?>
<!-- Generator: Adobe Illustrator 16.0.4, SVG Export Plug-In . SVG Version: 6.00 Build 0)  -->
<!DOCTYPE svg PUBLIC "-//W3C//DTD SVG 1.1//EN" "http://www.w3.org/Graphics/SVG/1.1/DTD/svg11.dtd">
<svg version="1.1" id="Layer_1" xmlns="http://www.w3.org/2000/svg" xmlns:xlink="http://www.w3.org/1999/xlink" x="0px" y="0px"
	 width="50px" height="50px" viewBox="0 0 50 50" enable-background="new 0 0 50 50" xml:space="preserve">
<path d="M14.573,16.438l-2.671,3.599c-0.177,0.237-0.204,0.553-0.073,0.818l4.123,8.339c-1.729,1.575-2.966,3.316-3.479,5.023
	c-0.072,0.238-0.027,0.497,0.121,0.696c0.149,0.201,0.383,0.318,0.632,0.318h21.929c0.215,0,0.42-0.087,0.568-0.242
	c2.598-2.707,3.543-5.568,2.598-7.852c-0.756-1.813-2.57-3.03-5.113-3.506l1.846-4.669h1.855c0.436,0,0.787-0.352,0.787-0.787
	c0-0.436-0.352-0.788-0.787-0.788h-7.086c-0.436,0-0.787,0.352-0.787,0.788c0,0.435,0.354,0.787,0.787,0.787h3.539l-1.771,4.482
	c-0.311-0.019-0.615-0.042-0.939-0.042c-2.609,0-5.465,0.615-8.262,1.778c-1.933,0.804-3.69,1.83-5.188,2.98l-3.744-7.574
	l4.078-5.495l2.65,1.857c0.357,0.248,0.848,0.165,1.098-0.194c0.25-0.356,0.162-0.846-0.193-1.096l-3.278-2.296
	c-0.349-0.244-0.83-0.169-1.084,0.176l-1.21,1.631l-2.734-2.319c-0.33-0.279-0.826-0.24-1.107,0.091
	c-0.281,0.332-0.241,0.829,0.091,1.11L14.573,16.438z M22.993,26.636c2.607-1.084,5.253-1.656,7.658-1.656
	c3.17,0,5.494,1.034,6.217,2.765c0.67,1.618-0.078,3.761-2.053,5.915H14.381C15.691,30.999,18.933,28.326,22.993,26.636z
	 M39.137,36.546c0,0.436-0.352,0.787-0.787,0.787h-26.7c-0.435,0-0.787-0.352-0.787-0.787c0-0.435,0.353-0.788,0.787-0.788h26.7
	C38.785,35.759,39.137,36.111,39.137,36.546z M23.26,31.331c0-0.435,0.353-0.787,0.787-0.787h1.332l3.9-2.651
	c0.355-0.241,0.848-0.153,1.094,0.208c0.244,0.359,0.15,0.85-0.209,1.094l-1.992,1.354c0.424,0.016,0.762,0.356,0.762,0.782
	c0,0.437-0.354,0.788-0.787,0.788h-4.099C23.613,32.118,23.26,31.767,23.26,31.331z"/>
</svg>
