<?xml version="1.0" encoding="iso-8859-1"?>
<!-- Generator: Adobe Illustrator 17.0.2, SVG Export Plug-In . SVG Version: 6.00 Build 0)  -->
<!DOCTYPE svg PUBLIC "-//W3C//DTD SVG 1.1//EN" "http://www.w3.org/Graphics/SVG/1.1/DTD/svg11.dtd">
<svg version="1.1" id="Capa_1" xmlns="http://www.w3.org/2000/svg" xmlns:xlink="http://www.w3.org/1999/xlink" x="0px" y="0px"
	 width="64px" height="64px" viewBox="0 0 64 64" style="enable-background:new 0 0 64 64;" xml:space="preserve">
<g>
	<path d="M5.949,37.594h3.553v5.71c0,1.827,1.482,3.309,3.309,3.309c0.573,0,1.104-0.159,1.573-0.416V47.8
		c0,1.828,1.482,3.309,3.31,3.309c1.826,0,3.309-1.482,3.309-3.309V37.594h21.053V47.8c0,1.828,1.481,3.309,3.309,3.309
		s3.309-1.482,3.309-3.309v-1.604c0.47,0.257,1.002,0.416,1.575,0.416c1.827,0,3.309-1.481,3.309-3.309v-5.71h4.388
		c1.567,0,2.836-1.269,2.836-2.836s-1.269-2.836-2.836-2.836h-4.388v-5.709c0-1.827-1.481-3.309-3.309-3.309
		c-0.573,0-1.105,0.159-1.575,0.416v-1.604c0-1.828-1.481-3.309-3.309-3.309s-3.309,1.482-3.309,3.309v10.206H21.003V21.716
		c0-1.828-1.482-3.309-3.309-3.309c-1.827,0-3.31,1.482-3.31,3.309v1.603c-0.47-0.257-1-0.415-1.573-0.415
		c-1.827,0-3.309,1.481-3.309,3.309v5.709H5.949c-1.567,0-2.837,1.27-2.837,2.836S4.382,37.594,5.949,37.594z"/>
</g>
</svg>
