<?xml version="1.0" encoding="utf-8"?>
<!-- Generator: Adobe Illustrator 17.0.2, SVG Export Plug-In . SVG Version: 6.00 Build 0)  -->
<!DOCTYPE svg PUBLIC "-//W3C//DTD SVG 1.1//EN" "http://www.w3.org/Graphics/SVG/1.1/DTD/svg11.dtd">
<svg version="1.1" id="Capa_1" xmlns="http://www.w3.org/2000/svg" xmlns:xlink="http://www.w3.org/1999/xlink" x="0px" y="0px"
	 width="100px" height="100px" viewBox="0 0 100 100" enable-background="new 0 0 100 100" xml:space="preserve">
<g>
	<path fill="#1D1D1B" d="M6.662,37.008c0.004,1.844,0.033,3.687,0.055,5.53H4.878c-1.751,0-3.211,1.461-3.211,3.211
		s1.46,3.211,3.211,3.211H6.78c0.025,2.022,0.056,4.043,0.06,6.065c0.009,4.141,6.431,4.142,6.422,0
		c-0.013-6.006-0.165-12.011-0.178-18.018C13.075,32.867,6.653,32.867,6.662,37.008z"/>
	<path fill="#1D1D1B" d="M77.304,30.229c0.13,4.082,0.245,8.165,0.392,12.245c-18.733-0.418-37.418,2.114-56.146,1.084
		c-0.109-4.146-0.245-8.292-0.44-12.437c-0.194-4.123-6.617-4.142-6.422,0c0.515,10.935,0.702,21.877,0.714,32.824
		c0.004,4.141,6.426,4.142,6.422,0c-0.005-4.653-0.051-9.306-0.131-13.957c18.77,1.014,37.497-1.532,56.273-1.085
		c0.219,4.603,0.508,9.201,0.943,13.793c0.388,4.086,6.813,4.123,6.422,0c-1.024-10.797-1.26-21.633-1.605-32.467
		C83.595,26.099,77.172,26.086,77.304,30.229z"/>
	<path fill="#1D1D1B" d="M93.933,42.118c0.851-0.131,0.023-0.009-0.134,0.005c-0.246,0.022-0.494,0.031-0.741,0.042
		c-0.185,0.008-0.37,0.004-0.555,0.007c-0.143-2.192-0.239-4.387-0.214-6.59c0.047-4.143-6.375-4.139-6.422,0
		c-0.079,6.988,0.997,13.899,1.249,20.872c0.149,4.129,6.572,4.143,6.422,0c-0.095-2.639-0.309-5.268-0.533-7.897
		c0.878-0.041,1.751-0.109,2.635-0.245c1.733-0.267,2.666-2.412,2.243-3.95C97.379,42.529,95.662,41.852,93.933,42.118z"/>
</g>
</svg>
