<?xml version="1.0" encoding="utf-8"?>
<!-- Generator: Adobe Illustrator 16.0.4, SVG Export Plug-In . SVG Version: 6.00 Build 0)  -->
<!DOCTYPE svg PUBLIC "-//W3C//DTD SVG 1.1//EN" "http://www.w3.org/Graphics/SVG/1.1/DTD/svg11.dtd">
<svg version="1.1" id="Layer_1" xmlns="http://www.w3.org/2000/svg" xmlns:xlink="http://www.w3.org/1999/xlink" x="0px" y="0px"
	 width="50px" height="50px" viewBox="0 0 50 50" enable-background="new 0 0 50 50" xml:space="preserve">
<g>
	<path d="M27.103,28.557l-15.389,5.512c-0.479,0.172-0.727,0.697-0.556,1.178c0.135,0.375,0.488,0.607,0.865,0.607
		c0.103,0,0.207-0.02,0.31-0.055l15.389-5.512c0.478-0.172,0.727-0.697,0.555-1.178C28.104,28.635,27.577,28.389,27.103,28.557z"/>
	<path d="M38.83,35.855L32.056,18.86c-0.188-0.471-0.723-0.696-1.193-0.514c-0.472,0.188-0.702,0.723-0.513,1.195l6.774,16.996
		c0.145,0.357,0.488,0.578,0.854,0.578c0.112,0,0.229-0.021,0.34-0.064C38.789,36.861,39.019,36.328,38.83,35.855z"/>
	<path d="M30.11,23.934c-0.088-0.235-0.271-0.427-0.501-0.524c-0.232-0.099-0.496-0.097-0.727,0.002l-4.33,1.884l-1.061-3.588
		l3.479-4.217c0.166-0.201,0.237-0.463,0.199-0.721c-0.038-0.256-0.183-0.485-0.398-0.629l-2.067-1.379
		c-0.425-0.283-0.995-0.167-1.274,0.256c-0.282,0.42-0.168,0.991,0.255,1.272l1.22,0.813l-2.847,3.451l-5.225-0.285l0.854-1.967
		c0.203-0.465-0.011-1.007-0.477-1.21c-0.469-0.196-1.007,0.011-1.208,0.478l-1.38,3.179c-0.12,0.276-0.097,0.593,0.061,0.849
		c0.158,0.258,0.432,0.418,0.731,0.436l6.36,0.347l1.309,4.432c0.074,0.252,0.254,0.461,0.493,0.572
		c0.239,0.113,0.514,0.115,0.754,0.01l4.395-1.91l2.339,6.287c0.138,0.371,0.488,0.6,0.86,0.6c0.106,0,0.215-0.018,0.32-0.059
		c0.476-0.178,0.717-0.705,0.541-1.18L30.11,23.934z"/>
	<circle cx="19.89" cy="15.469" r="2.584"/>
</g>
</svg>
