<?xml version="1.0" encoding="utf-8"?>
<!-- Generator: Adobe Illustrator 16.0.4, SVG Export Plug-In . SVG Version: 6.00 Build 0)  -->
<!DOCTYPE svg PUBLIC "-//W3C//DTD SVG 1.1//EN" "http://www.w3.org/Graphics/SVG/1.1/DTD/svg11.dtd">
<svg version="1.1" id="Layer_1" xmlns="http://www.w3.org/2000/svg" xmlns:xlink="http://www.w3.org/1999/xlink" x="0px" y="0px"
	 width="50px" height="50px" viewBox="0 0 50 50" enable-background="new 0 0 50 50" xml:space="preserve">
<g>
	<path d="M15.793,18.152l2.781,0.062l-4.226,2.494c-0.449,0.266-0.611,0.836-0.369,1.299l5.75,10.97
		c0.136,0.26,0.384,0.444,0.673,0.504c0.278,0.06,0.588-0.017,0.815-0.204l7.266-6l6.059,6.061c0.191,0.189,0.441,0.285,0.691,0.285
		c0.252,0,0.502-0.096,0.693-0.285c0.381-0.384,0.381-1.002,0-1.385l-6.689-6.688c-0.357-0.359-0.926-0.383-1.314-0.063L20.904,31
		l-4.76-9.076l6.376-3.767c0.377-0.222,0.561-0.667,0.449-1.09c-0.108-0.424-0.487-0.722-0.926-0.731l-6.105-0.138
		c-0.339-1.099-1.352-1.901-2.561-1.901c-1.484,0-2.69,1.205-2.69,2.69s1.206,2.69,2.69,2.69
		C14.444,19.678,15.358,19.053,15.793,18.152z"/>
	<path d="M38.334,33.745H14.725c-0.541,0-0.979,0.438-0.979,0.979c0,0.539,0.438,0.979,0.979,0.979h23.609
		c0.541,0,0.979-0.438,0.979-0.979S38.875,33.745,38.334,33.745z"/>
</g>
</svg>
