<?xml version="1.0" encoding="utf-8"?>
<!-- Generator: Adobe Illustrator 16.0.4, SVG Export Plug-In . SVG Version: 6.00 Build 0)  -->
<!DOCTYPE svg PUBLIC "-//W3C//DTD SVG 1.1//EN" "http://www.w3.org/Graphics/SVG/1.1/DTD/svg11.dtd">
<svg version="1.1" id="Layer_1" xmlns="http://www.w3.org/2000/svg" xmlns:xlink="http://www.w3.org/1999/xlink" x="0px" y="0px"
	 width="50px" height="50px" viewBox="0 0 50 50" enable-background="new 0 0 50 50" xml:space="preserve">
<path d="M30.071,31.166c-0.316,0.004-0.577-0.254-0.582-0.582c-0.005-0.324,0.247-0.592,0.565-0.597
	c0.319-0.004,0.581,0.255,0.586,0.58C30.646,30.896,30.392,31.162,30.071,31.166z M19.672,30.728
	c0.005,0.325,0.266,0.585,0.584,0.58c0.318-0.005,0.571-0.271,0.566-0.597c-0.004-0.326-0.265-0.586-0.583-0.58
	C19.92,30.135,19.667,30.402,19.672,30.728z M25.186,33.196c-2.217,0.032-3.994,1.862-3.962,4.079l0.066,4.641
	c0.003,0.227,0.188,0.406,0.414,0.402c0.226-0.003,0.406-0.188,0.402-0.415l-0.066-4.641c-0.025-1.767,1.391-3.226,3.157-3.25
	c1.767-0.026,3.225,1.391,3.25,3.157l0.07,4.815c0.003,0.226,0.188,0.406,0.414,0.402c0.227-0.003,0.405-0.188,0.402-0.414
	l-0.069-4.815C29.231,34.942,27.401,33.164,25.186,33.196z M26.44,38.75c0.003,0,0.005,0,0.009,0
	c0.819-0.01,1.395-0.597,1.419-0.621c0.155-0.164,0.15-0.422-0.013-0.578c-0.161-0.156-0.42-0.151-0.577,0.011
	c-0.003,0.003-0.347,0.394-0.846,0.373c-0.262,0.002-0.521-0.114-0.775-0.335l-0.01-0.653c0.247,0.113,0.504,0.171,0.771,0.167
	c0.002,0,0.005,0,0.007,0c0.821-0.012,1.396-0.599,1.419-0.623c0.157-0.164,0.152-0.422-0.011-0.578
	c-0.162-0.158-0.421-0.152-0.577,0.01c-0.004,0.004-0.367,0.367-0.843,0.375c-0.002,0-0.003,0-0.004,0
	c-0.263,0.002-0.522-0.114-0.775-0.336l-0.01-0.723c-0.004-0.226-0.189-0.406-0.415-0.402s-0.405,0.188-0.402,0.416l0.011,0.724
	c-0.245,0.226-0.499,0.351-0.759,0.354c-0.467-0.023-0.854-0.34-0.865-0.351c-0.16-0.155-0.418-0.151-0.576,0.008
	c-0.157,0.161-0.155,0.419,0.006,0.578c0.025,0.024,0.616,0.595,1.438,0.582c0.002,0,0.005,0,0.007,0
	c0.265-0.005,0.521-0.067,0.764-0.188l0.01,0.653c-0.245,0.226-0.499,0.351-0.76,0.356c-0.003,0-0.007,0-0.01,0
	c-0.472,0.007-0.846-0.342-0.854-0.35c-0.161-0.156-0.419-0.152-0.575,0.008c-0.158,0.162-0.155,0.42,0.006,0.578
	c0.024,0.024,0.615,0.594,1.436,0.582c0.003,0,0.005,0,0.008,0c0.266-0.004,0.521-0.068,0.765-0.188l0.013,0.87
	c-0.245,0.228-0.5,0.352-0.76,0.357c-0.003,0-0.007,0-0.011,0c-0.47,0.008-0.843-0.34-0.854-0.351
	c-0.16-0.156-0.418-0.153-0.576,0.007c-0.157,0.161-0.155,0.42,0.006,0.578c0.025,0.023,0.615,0.594,1.436,0.582
	c0.003,0,0.005,0,0.008,0c0.266-0.005,0.521-0.068,0.765-0.189l0.002,0.159c0.004,0.226,0.189,0.406,0.415,0.403
	c0.225-0.003,0.405-0.188,0.402-0.415l-0.002-0.16c0.246,0.112,0.504,0.17,0.77,0.168c0.002,0,0.005,0,0.008,0
	c0.82-0.012,1.395-0.599,1.418-0.624c0.156-0.162,0.15-0.418-0.01-0.574c-0.16-0.158-0.419-0.154-0.577,0.006
	c-0.003,0.004-0.375,0.367-0.854,0.375c-0.26,0-0.519-0.117-0.771-0.336l-0.013-0.871C25.919,38.696,26.176,38.752,26.44,38.75z
	 M25.311,41.772c-0.273,0.004-0.491,0.229-0.488,0.503c0.005,0.273,0.229,0.493,0.503,0.489c0.271-0.005,0.488-0.229,0.484-0.503
	C25.807,41.987,25.583,41.77,25.311,41.772z M5.473,8.461C5.247,8.464,5.067,8.649,5.07,8.876l0.081,5.583
	c0.004,0.226,0.188,0.406,0.414,0.403c0.226-0.003,0.406-0.189,0.402-0.415l-0.08-5.583C5.884,8.639,5.698,8.458,5.473,8.461z
	 M15.731,14.714c0.226-0.003,0.406-0.188,0.402-0.415l-0.081-5.583c-0.003-0.226-0.188-0.406-0.414-0.402
	c-0.226,0.003-0.405,0.188-0.402,0.414l0.081,5.583C15.32,14.538,15.506,14.717,15.731,14.714z M4.3,10.112
	c-0.226,0.003-0.405,0.188-0.402,0.414l0.033,2.315c0.003,0.226,0.188,0.406,0.414,0.402c0.226-0.003,0.406-0.188,0.402-0.415
	l-0.033-2.315C4.711,10.29,4.525,10.109,4.3,10.112z M16.904,13.063c0.226-0.003,0.405-0.189,0.402-0.415l-0.033-2.315
	c-0.004-0.226-0.188-0.406-0.414-0.403c-0.227,0.003-0.406,0.189-0.403,0.415l0.033,2.315
	C16.493,12.886,16.679,13.066,16.904,13.063z M11.068,22.4c-0.026-0.223-0.226-0.383-0.452-0.359
	c-0.224,0.026-0.385,0.227-0.359,0.45c0.004,0.035,0.428,3.465,4.303,3.732c0.012,0.001,0.023,0.001,0.035,0.001
	c0.21-0.003,0.386-0.167,0.4-0.381c0.016-0.225-0.154-0.419-0.379-0.435C11.434,25.189,11.082,22.515,11.068,22.4z M43.229,7.235
	c-0.226,0.003-0.405,0.188-0.401,0.414l0.044,3.063l-1.168,0.017c-0.021-0.051-0.043-0.104-0.068-0.153
	c-0.021-0.216-0.104-0.674-0.432-0.981c-0.172-0.161-0.387-0.257-0.627-0.283c-0.189-0.158-0.501-0.303-0.934-0.268
	c-0.172-0.07-0.476-0.144-0.875-0.046c-0.172-0.028-0.492-0.042-0.898,0.095c-0.199-0.027-0.447,0.005-0.646,0.172
	c-0.221,0.185-0.326,0.479-0.315,0.877c-0.048,0.035-0.093,0.077-0.136,0.126c-0.119,0.139-0.191,0.319-0.229,0.534l-0.63,0.009
	l-0.044-3.063c-0.004-0.226-0.188-0.406-0.415-0.403c-0.227,0.003-0.405,0.189-0.402,0.415l0.102,6.944
	c0.003,0.226,0.188,0.406,0.414,0.402c0.226-0.003,0.406-0.188,0.401-0.415l-0.044-3.063l0.641-0.009
	c0.006,0.032,0.006,0.059,0.013,0.092c0.01,0.048,0.026,0.094,0.053,0.136c0.034,0.057,0.812,1.323,1.769,1.938
	c0.086,0.669,0.168,1.584,0.11,1.854c-0.231,1.088-0.461,2.611,0.04,3.827c-0.593,0.229-1.609,0.66-2.086,1.098
	c-0.529,0.485-1.749,1.645-2.398,2.56c-1.916-0.808-5.007-1.558-6.01-1.791c0.012-1.261,0.198-2.021,0.247-2.199
	c0.567-0.955,0.742-1.679,0.534-2.214c-0.062-0.16-0.155-0.284-0.255-0.376c0.336-3.501-2.467-4.133-2.513-4.142
	c-0.027-0.005-0.692-0.115-1.158-0.065c-0.515-0.037-1.176,0.094-1.22,0.103c-0.028,0.007-2.809,0.72-2.371,4.209
	c-0.098,0.095-0.188,0.222-0.245,0.384c-0.194,0.541,0.001,1.26,0.597,2.197c0.053,0.176,0.26,0.924,0.31,2.176
	c-0.991,0.219-3.898,0.923-5.678,2.006c-0.67-0.901-1.946-2.046-2.495-2.521c-0.488-0.423-1.519-0.826-2.117-1.037
	c0.465-1.231,0.192-2.746-0.07-3.827c-0.065-0.269-0.011-1.186,0.057-1.857c0.938-0.643,1.679-1.931,1.711-1.989
	c0.025-0.042,0.041-0.089,0.049-0.137c0.005-0.033,0.005-0.06,0.01-0.092l0.641-0.009l0.044,3.063
	c0.004,0.226,0.188,0.405,0.414,0.402c0.227-0.003,0.406-0.188,0.403-0.415l-0.101-6.944c-0.003-0.226-0.188-0.405-0.414-0.402
	s-0.406,0.189-0.403,0.415l0.045,3.063l-0.631,0.009c-0.042-0.214-0.12-0.392-0.243-0.527c-0.044-0.048-0.091-0.089-0.14-0.123
	c-0.001-0.399-0.114-0.69-0.341-0.868c-0.203-0.161-0.45-0.187-0.65-0.154c-0.412-0.125-0.73-0.101-0.901-0.069
	c-0.402-0.086-0.703-0.004-0.874,0.071C9.861,9.443,9.557,9.597,9.372,9.76c-0.239,0.032-0.451,0.134-0.618,0.3
	c-0.318,0.317-0.389,0.777-0.403,0.993c-0.024,0.05-0.043,0.104-0.063,0.155L7.12,11.226L7.075,8.163
	C7.072,7.937,6.887,7.756,6.661,7.76C6.435,7.764,6.256,7.949,6.259,8.174l0.101,6.943c0.003,0.226,0.188,0.406,0.414,0.403
	s0.406-0.188,0.402-0.415l-0.044-3.063l0.955-0.014c-0.057,0.457-0.035,0.849-0.03,0.919c0.003,0.035,0.01,0.07,0.021,0.104
	c0.114,0.334,0.463,1.354,0.305,1.663c-0.605,1.183-1.332,4.533-1.367,4.707c-0.349,2.562,0.84,4.219,1.626,5.314l0.108,0.151
	c0.976,1.366,2.566,2.282,3.102,2.565c0.587,2.401,2.527,3.248,3.902,3.424c-0.141,0.906,0.295,2.528,3.421,4.935
	c-0.058,0.933-0.209,4.485,0.643,6.556c0.065,0.16,0.221,0.256,0.384,0.254c0.05,0,0.101-0.012,0.149-0.031
	c0.209-0.086,0.309-0.325,0.223-0.533c-0.891-2.166-0.572-6.362-0.569-6.405c0.011-0.14-0.049-0.274-0.161-0.358
	c-3.379-2.549-3.386-3.957-3.255-4.414c0.042-0.017,0.077-0.041,0.11-0.07c0.684,1.249,2.142,2.107,3.825,2.083
	c2.31-0.033,4.165-1.707,4.136-3.729l-0.024-1.686c-0.003-0.227-0.188-0.406-0.415-0.402c-0.226,0.004-0.405,0.188-0.402,0.415
	l0.024,1.685c0.022,1.572-1.471,2.875-3.33,2.902c-1.859,0.025-3.39-1.232-3.413-2.806c-0.003-0.226-0.188-0.405-0.414-0.401
	c-0.226,0.002-0.406,0.188-0.402,0.414c0.004,0.281,0.052,0.553,0.125,0.814c-1.113,0.042-3.289-0.538-3.8-3.004
	c-0.026-0.125-0.108-0.229-0.223-0.285c-0.02-0.01-1.93-0.938-2.97-2.394l-0.11-0.153c-0.753-1.05-1.785-2.488-1.485-4.697
	c0.008-0.034,0.733-3.387,1.29-4.475c0.286-0.557,0.031-1.447-0.24-2.248c-0.015-0.313,0.004-1.059,0.242-1.474
	c0.034-0.062,0.054-0.135,0.054-0.207c0-0.092,0.029-0.386,0.166-0.521c0.037-0.035,0.098-0.068,0.223-0.072
	c0.148,0.012,0.271-0.055,0.347-0.18c0.012-0.014,0.119-0.14,0.426-0.1c0.091,0.013,0.201-0.019,0.281-0.066
	c0.007-0.004,0.161-0.094,0.457-0.014c0.072,0.02,0.161,0.016,0.233-0.006c0.011-0.003,0.239-0.067,0.619,0.07
	c0.091,0.034,0.202,0.014,0.294-0.021c0,0.001,0.065,0.101,0.021,0.455c-0.015,0.121-0.009,0.237,0.075,0.326
	c0.083,0.088,0.161,0.128,0.29,0.124c0.001,0.001,0.123,0.133,0.047,0.685c-0.245,0.41-0.9,1.359-1.554,1.735
	c-0.114,0.064-0.188,0.179-0.203,0.309c-0.033,0.294-0.189,1.792-0.059,2.334c0.263,1.08,0.543,2.634-0.054,3.671
	c-0.062,0.107-0.071,0.237-0.026,0.353c0.045,0.115,0.141,0.204,0.259,0.241c0.474,0.148,1.807,0.622,2.269,1.022
	c0.438,0.38,1.912,1.685,2.49,2.548c0.011,0.06,0.029,0.119,0.067,0.172c0.081,0.113,0.209,0.173,0.339,0.171
	c0.08-0.001,0.16-0.026,0.231-0.076c1.876-1.34,6.034-2.18,6.076-2.188c0.193-0.039,0.331-0.209,0.328-0.406
	c-0.025-1.798-0.363-2.771-0.378-2.811c-0.011-0.03-0.024-0.058-0.042-0.085c-0.607-0.944-0.587-1.365-0.55-1.501
	c0.023-0.087,0.059-0.109,0.049-0.104c0.192-0.062,0.311-0.255,0.278-0.455c-0.484-2.946,1.631-3.516,1.702-3.536
	c0.16-0.031,0.649-0.107,0.988-0.085c0.022,0.002,0.07,0.001,0.092-0.001c0.397-0.038,0.971,0.054,0.973,0.054
	c0.093,0.02,2.225,0.504,1.823,3.488c-0.027,0.201,0.071,0.382,0.267,0.438c0.008,0.004,0.05,0.027,0.074,0.11
	c0.041,0.136,0.073,0.555-0.508,1.518c-0.017,0.027-0.029,0.056-0.039,0.086c-0.014,0.041-0.322,1.023-0.297,2.82
	c0.003,0.189,0.136,0.352,0.319,0.393c0.043,0.01,4.299,0.961,6.43,1.922c0.113,0.051,0.234,0.042,0.338-0.005
	c0.105-0.021,0.205-0.083,0.268-0.182c0.549-0.879,1.992-2.233,2.422-2.628c0.451-0.413,1.77-0.925,2.238-1.087
	c0.116-0.041,0.209-0.132,0.251-0.249c0.042-0.117,0.028-0.246-0.036-0.352c-0.627-1.02-0.392-2.582-0.16-3.669
	c0.115-0.545-0.084-2.038-0.125-2.331c-0.02-0.129-0.098-0.242-0.213-0.303c-0.736-0.395-1.433-1.428-1.603-1.691
	c-0.086-0.51,0.007-0.662-0.029-0.673c0.121-0.003,0.229-0.049,0.31-0.137c0.082-0.091,0.117-0.213,0.099-0.333
	c-0.056-0.358,0.008-0.458,0.021-0.437c0.094,0.031,0.193,0.03,0.283-0.007c0.373-0.147,0.604-0.09,0.606-0.09
	c0.08,0.025,0.164,0.027,0.243,0.002c0.283-0.086,0.441-0.008,0.443-0.008l0,0c0.086,0.059,0.192,0.082,0.297,0.066
	c0.305-0.046,0.414,0.072,0.416,0.072c0.08,0.121,0.224,0.202,0.363,0.185c0.124,0,0.188,0.032,0.225,0.066
	c0.142,0.13,0.18,0.423,0.183,0.513c0.001,0.073,0.021,0.145,0.06,0.207c0.25,0.408,0.291,1.152,0.285,1.466
	c-0.248,0.808-0.479,1.705-0.177,2.253c0.588,1.071,1.411,4.403,1.413,4.405c0.369,2.23-0.621,3.697-1.344,4.768l-0.104,0.156
	c-0.995,1.482-2.881,2.469-2.899,2.48c-0.112,0.058-0.191,0.167-0.215,0.292c-0.438,2.486-2.619,3.145-3.722,3.111
	c-0.106,0.004-0.194,0.043-0.264,0.099c0.081-0.294,0.138-0.597,0.133-0.913c-0.003-0.227-0.188-0.406-0.414-0.402
	s-0.406,0.188-0.401,0.414c0.021,1.573-1.473,2.875-3.331,2.902s-3.391-1.23-3.413-2.805l-0.023-1.685
	c-0.003-0.226-0.188-0.405-0.414-0.401c-0.227,0.002-0.406,0.188-0.402,0.414l0.024,1.685c0.028,2.022,1.932,3.644,4.239,3.608
	c1.729-0.024,3.201-0.967,3.822-2.289c0.004,0.033,0.006,0.065,0.02,0.098c0.154,0.365,0.391,1.777-3.102,4.572
	c-0.108,0.088-0.166,0.225-0.15,0.363c0.004,0.043,0.445,4.228-0.385,6.418c-0.078,0.211,0.026,0.447,0.237,0.526
	c0.05,0.019,0.102,0.026,0.15,0.026c0.163-0.002,0.314-0.102,0.377-0.264c0.793-2.094,0.538-5.642,0.453-6.572
	c3.026-2.471,3.437-4.096,3.28-5c1.375-0.143,3.502-1,4.052-3.568c0.526-0.298,2.09-1.26,3.024-2.653l0.104-0.154
	c0.755-1.118,1.896-2.808,1.466-5.389c-0.035-0.142-0.857-3.47-1.496-4.635c-0.168-0.304,0.151-1.333,0.258-1.671
	c0.01-0.034,0.016-0.069,0.018-0.104c0.003-0.071,0.013-0.463-0.057-0.918l0.955-0.014l0.043,3.063
	c0.004,0.226,0.188,0.406,0.416,0.403c0.226-0.004,0.404-0.189,0.401-0.415l-0.101-6.944C43.641,7.413,43.455,7.232,43.229,7.235z
	 M44.436,7.898c-0.227,0.003-0.406,0.188-0.402,0.415l0.08,5.583c0.004,0.226,0.188,0.406,0.414,0.403
	c0.227-0.004,0.406-0.189,0.402-0.415l-0.08-5.583C44.848,8.076,44.661,7.896,44.436,7.898z M34.361,14.445
	c0.226-0.003,0.404-0.188,0.402-0.414l-0.082-5.583c-0.002-0.226-0.188-0.406-0.414-0.403c-0.226,0.003-0.406,0.189-0.401,0.415
	l0.079,5.583C33.949,14.269,34.135,14.449,34.361,14.445z M45.654,9.516c-0.227,0.003-0.405,0.188-0.402,0.414l0.034,2.315
	c0.003,0.226,0.188,0.406,0.414,0.402s0.405-0.188,0.401-0.415l-0.033-2.315C46.066,9.692,45.881,9.513,45.654,9.516z
	 M33.141,12.829c0.228-0.003,0.406-0.188,0.403-0.414L33.51,10.1c-0.003-0.226-0.188-0.406-0.414-0.402
	c-0.226,0.003-0.406,0.188-0.402,0.415l0.033,2.315C32.729,12.651,32.915,12.833,33.141,12.829z M35.863,25.918
	c3.867-0.379,4.191-3.821,4.193-3.855c0.02-0.225-0.147-0.421-0.373-0.44c-0.222-0.023-0.423,0.148-0.439,0.374
	c-0.01,0.114-0.266,2.795-3.459,3.109c-0.225,0.022-0.391,0.222-0.367,0.445c0.021,0.214,0.201,0.373,0.412,0.369
	C35.841,25.918,35.854,25.918,35.863,25.918z"/>
</svg>
