<?xml version="1.0" encoding="utf-8"?>
<!-- Generator: Adobe Illustrator 16.0.4, SVG Export Plug-In . SVG Version: 6.00 Build 0)  -->
<!DOCTYPE svg PUBLIC "-//W3C//DTD SVG 1.1//EN" "http://www.w3.org/Graphics/SVG/1.1/DTD/svg11.dtd">
<svg version="1.1" id="Layer_1" xmlns="http://www.w3.org/2000/svg" xmlns:xlink="http://www.w3.org/1999/xlink" x="0px" y="0px"
	 width="50px" height="50px" viewBox="0 0 50 50" enable-background="new 0 0 50 50" xml:space="preserve">
<g>
	<circle cx="11.849" cy="29.605" r="2.403"/>
	<path d="M40.363,31.269l-5.073-7.344c-0.173-0.253-0.446-0.417-0.749-0.453c-0.298-0.039-0.605,0.057-0.836,0.262l-6.641,5.871
		h-9.033l2.381-5.354c1.919-0.081,3.452-1.652,3.452-3.59c0-1.99-1.614-3.604-3.604-3.604c-1.99,0-3.604,1.613-3.604,3.604
		c0,1.273,0.667,2.391,1.666,3.031l-2.91,6.548c-0.146,0.329-0.116,0.713,0.082,1.016c0.196,0.304,0.534,0.486,0.896,0.486h11.081
		c0.262,0,0.514-0.097,0.707-0.271l6.041-5.342l4.391,6.352c0.205,0.302,0.539,0.461,0.877,0.461c0.212,0,0.423-0.061,0.607-0.188
		C40.578,32.419,40.699,31.754,40.363,31.269z"/>
</g>
</svg>
