<?xml version="1.0" encoding="utf-8"?>
<!-- Generator: Adobe Illustrator 16.0.4, SVG Export Plug-In . SVG Version: 6.00 Build 0)  -->
<!DOCTYPE svg PUBLIC "-//W3C//DTD SVG 1.1//EN" "http://www.w3.org/Graphics/SVG/1.1/DTD/svg11.dtd">
<svg version="1.1" id="Layer_1" xmlns="http://www.w3.org/2000/svg" xmlns:xlink="http://www.w3.org/1999/xlink" x="0px" y="0px"
	 width="50px" height="50px" viewBox="0 0 50 50" enable-background="new 0 0 50 50" xml:space="preserve">
<path d="M26.396,18.694l5.82,3.09c0.287,0.152,0.477,0.441,0.504,0.767l0.325,4.351l4.024-3.672
	c0.388-0.354,0.988-0.328,1.342,0.061s0.326,0.986-0.061,1.342l-5.466,4.989c-0.179,0.164-0.407,0.249-0.641,0.249
	c-0.118,0-0.237-0.021-0.351-0.066c-0.338-0.134-0.57-0.449-0.599-0.812l-0.435-5.774l-5.358-2.844
	c-0.464-0.245-0.642-0.82-0.394-1.284C25.355,18.625,25.93,18.446,26.396,18.694z M42.741,23.677l-6.675,8.688h2.356
	c0.525,0,0.95,0.425,0.95,0.95c0,0.524-0.425,0.949-0.95,0.949H8.012c-0.525,0-0.949-0.425-0.949-0.949
	c0-0.525,0.424-0.95,0.949-0.95h1.323c1.043-4.681,2.578-11.759,2.71-12.839l-1.695-1.092c-0.441-0.285-0.57-0.873-0.287-1.314
	c0.285-0.441,0.871-0.566,1.314-0.285l8.818,5.672l4.125-6.341c0.287-0.44,0.881-0.562,1.314-0.278
	c0.439,0.286,0.564,0.875,0.278,1.314l-4.12,6.333l12.487,8.032l6.95-9.049c0.322-0.416,0.92-0.49,1.334-0.174
	C42.982,22.664,43.061,23.263,42.741,23.677z M32.007,32.364l-11.25-7.235l-1.045,1.606c0.367,0.474,0.597,1.061,0.597,1.707
	c0,1.541-1.248,2.793-2.791,2.793s-2.791-1.252-2.791-2.793s1.248-2.793,2.791-2.793c0.203,0,0.399,0.024,0.592,0.064l1.052-1.613
	l-5.386-3.465c-0.271,1.531-0.943,4.778-2.491,11.729H32.007z M17.518,27.113c-0.733,0-1.33,0.596-1.33,1.329
	c0,0.731,0.597,1.33,1.33,1.33c0.731,0,1.328-0.599,1.328-1.33c0-0.463-0.25-0.852-0.609-1.088
	c-0.016-0.011-0.034-0.006-0.049-0.017c-0.024-0.017-0.039-0.04-0.062-0.06C17.941,27.183,17.739,27.113,17.518,27.113z
	 M39.492,22.029c1.38,0,2.494-1.118,2.494-2.495s-1.114-2.494-2.494-2.494c-1.379,0-2.494,1.117-2.494,2.494
	S38.113,22.029,39.492,22.029z M16.759,28.442c0,0.418,0.341,0.759,0.759,0.759c0.416,0,0.756-0.341,0.756-0.759
	s-0.34-0.758-0.756-0.758C17.1,27.685,16.759,28.024,16.759,28.442z"/>
</svg>
