<?xml version="1.0" encoding="utf-8"?>
<!-- Generator: Adobe Illustrator 16.0.4, SVG Export Plug-In . SVG Version: 6.00 Build 0)  -->
<!DOCTYPE svg PUBLIC "-//W3C//DTD SVG 1.1//EN" "http://www.w3.org/Graphics/SVG/1.1/DTD/svg11.dtd">
<svg version="1.1" id="Layer_1" xmlns="http://www.w3.org/2000/svg" xmlns:xlink="http://www.w3.org/1999/xlink" x="0px" y="0px"
	 width="50px" height="50px" viewBox="0 0 50 50" enable-background="new 0 0 50 50" xml:space="preserve">
<path d="M16.986,18.101c0-0.207,0.167-0.374,0.373-0.374h0.288c-0.1-0.222-0.178-0.438-0.223-0.642
	c-0.112-0.342-0.177-0.732-0.177-1.127c0-1.371,0.746-2.636,1.947-3.301c1.429-0.782,3.284-0.521,4.435,0.586
	c1.146-1.107,3.008-1.366,4.432-0.586c1.201,0.667,1.949,1.931,1.949,3.302c0,0.395-0.063,0.786-0.188,1.163
	c-0.602,2.704-5.773,5.981-5.995,6.119c-0.062,0.038-0.129,0.057-0.198,0.057c-0.068,0-0.138-0.019-0.197-0.057
	c-0.105-0.066-2.582-1.629-4.338-3.485c-0.143-0.149-0.137-0.386,0.014-0.527c0.15-0.143,0.387-0.136,0.527,0.015
	c1.412,1.49,3.371,2.827,3.994,3.237c0.949-0.625,4.992-3.396,5.475-5.557c0.107-0.337,0.158-0.649,0.158-0.965
	c0-1.099-0.599-2.113-1.562-2.646c-1.248-0.684-2.879-0.372-3.782,0.719c-0.07,0.085-0.177,0.135-0.287,0.135l0,0
	c-0.11,0-0.217-0.049-0.287-0.135c-0.902-1.084-2.541-1.4-3.787-0.718c-0.963,0.532-1.562,1.547-1.562,2.646
	c0,0.315,0.052,0.628,0.149,0.931c0.062,0.273,0.183,0.551,0.341,0.838h1.771l0.573-0.961c0.066-0.111,0.185-0.18,0.313-0.183
	c0.002,0,0.005,0,0.007,0c0.126,0,0.245,0.063,0.313,0.17l0.883,1.359l1.03-2.788c0.054-0.147,0.193-0.244,0.351-0.244l0,0
	c0.156,0,0.296,0.097,0.351,0.243l0.896,2.402h1.561c0.206,0,0.373,0.167,0.373,0.374s-0.167,0.374-0.373,0.374h-1.818
	c-0.156,0-0.297-0.098-0.352-0.243l-0.635-1.703l-0.939,2.543c-0.049,0.132-0.169,0.226-0.309,0.242
	c-0.014,0.001-0.027,0.002-0.042,0.002c-0.125,0-0.243-0.063-0.312-0.17l-0.962-1.481l-0.375,0.628
	c-0.068,0.113-0.189,0.183-0.32,0.183h-3.108C17.153,18.475,16.986,18.308,16.986,18.101z M42.737,30.492
	c-0.271,0.768-1.434,2.234-2.664,3.787c-0.975,1.229-1.982,2.502-2.471,3.33c-0.07,0.119-0.193,0.184-0.321,0.184
	c-0.065,0-0.13-0.017-0.19-0.052c-0.178-0.104-0.235-0.334-0.131-0.511c0.514-0.872,1.538-2.165,2.527-3.415
	c0.043-0.055,0.087-0.109,0.13-0.164c-1.147,0.543-2.22,0.689-2.598,0.726c-1.88,1.684-3.985,2.104-5.617,2.104
	c-1.554,0-2.679-0.38-2.772-0.413c-0.019-0.006-0.031-0.021-0.049-0.029c-0.009-0.004-0.019-0.002-0.027-0.008
	c-0.746-0.47-1.945-0.666-2.453-0.73c-0.237,0.374-0.512,0.52-0.549,0.537c-1.01,0.326-1.721,0.325-2.166,0.019
	c-0.209-0.144-0.313-0.321-0.367-0.46c-0.243-0.153-0.356-0.343-0.409-0.485c-0.05-0.137-0.06-0.269-0.052-0.381
	c-0.284-0.261-0.328-0.646-0.271-0.962c-0.169-0.216-0.175-0.432-0.158-0.557c0.092-0.656,1.121-1.161,1.586-1.357
	c0.172-0.242,0.396-0.322,0.562-0.345c0.624-0.085,1.35,0.543,1.654,0.842l2-0.021c-0.474-0.905-0.682-1.75-0.772-2.32
	c-1.343,0.982-2.696,0.927-3.869,0.722c-1.387-0.242-2.372-0.694-2.68-0.847c-1.481,0.075-3.031-0.276-4.595-1.054
	c-0.959,0.78-2.183,1.25-3.514,1.25c-3.08,0-5.586-2.505-5.586-5.585s2.506-5.585,5.586-5.585c3.079,0,5.584,2.505,5.584,5.585
	c0,0.181-0.01,0.357-0.025,0.533c1.217,0.339,2.048,0.671,2.451,0.85c1.183-1.367,4.385-1.71,5.18-1.774
	c2.261-2.15,4.773-0.901,5.511-0.453l0.998-0.586l-0.022-1.017c-0.427-0.406-0.617-1.239-0.689-1.666
	c-0.717-0.426-0.708-1.839-0.697-2.145c-0.043-0.254,0.111-0.42,0.208-0.491c0.081-0.06,0.173-0.091,0.265-0.102
	c-0.039-0.489-0.08-1.013-0.08-1.08c0-2.322,2.388-2.953,3.649-2.962c1.048,0.052,1.831,0.419,2.353,1.091
	c0.686,0.884,0.727,2.07,0.677,2.766c0.073,0.015,0.142,0.042,0.206,0.084c0.333,0.22,0.307,0.704,0.275,0.923
	c0.117,1.01-0.439,1.634-0.731,1.887c-0.026,0.479-0.147,0.831-0.203,0.971l-0.065,0.646c0.377,0.979,2.857,2.597,4.369,3.403
	C43.884,25.832,42.86,30.018,42.737,30.492z M12.501,29.132c2.668,0,4.838-2.17,4.838-4.838c0-2.667-2.17-4.838-4.838-4.838
	s-4.839,2.17-4.839,4.838S9.833,29.132,12.501,29.132z M42.097,29.946c0.002-0.001,0.002-0.003,0.004-0.004
	c0.267-1.244,0.533-3.712-0.678-4.083c-0.504-0.261-4.35-2.354-4.822-3.941c-0.014-0.047-0.02-0.097-0.014-0.145l0.08-0.782
	c0.006-0.043,0.018-0.084,0.034-0.122c0.001-0.001,0.164-0.363,0.164-0.903c0-0.128,0.065-0.246,0.174-0.314
	c0.024-0.018,0.677-0.459,0.554-1.34c-0.006-0.039-0.006-0.08,0.002-0.118c0.006-0.035,0.01-0.074,0.013-0.112
	c-0.124,0.07-0.277,0.065-0.396-0.014c-0.125-0.084-0.188-0.236-0.158-0.384c0.004-0.018,0.334-1.707-0.465-2.733
	c-0.381-0.491-0.979-0.76-1.775-0.8c-0.096,0.001-2.887,0.055-2.887,2.215c0.004,0.127,0.117,1.504,0.117,1.504
	c0.012,0.133-0.05,0.262-0.16,0.338c-0.104,0.073-0.237,0.086-0.354,0.039c0.02,0.641,0.163,1.263,0.368,1.305
	c0.155,0.032,0.274,0.161,0.295,0.319c0.076,0.607,0.31,1.34,0.533,1.465c0.116,0.064,0.188,0.187,0.19,0.318l0.03,1.414
	c0.003,0.135-0.067,0.262-0.185,0.33l-1.387,0.812c-0.13,0.076-0.291,0.065-0.412-0.021c-0.105-0.078-2.619-1.893-4.85,0.341
	c-0.064,0.063-0.148,0.103-0.238,0.107c-1.133,0.077-4.225,0.531-4.931,1.702c-0.101,0.168-0.315,0.23-0.489,0.14
	c-0.01-0.005-0.894-0.449-2.525-0.91c-0.223,0.951-0.688,1.807-1.33,2.503c1.391,0.647,2.757,0.946,4.061,0.86
	c0.066-0.003,0.141,0.011,0.204,0.045c0.011,0.005,1.029,0.552,2.55,0.817c1.211,0.21,2.506,0.236,3.782-0.999
	c0.109-0.104,0.271-0.133,0.405-0.075c0.138,0.059,0.229,0.193,0.229,0.344c0,0.015,0.026,1.403,0.875,2.912
	c2.582-1.277,5.855-1.33,6.969-1.307c0.107-2.543,1.258-3.34,1.31-3.375c0.17-0.115,0.401-0.068,0.519,0.104
	c0.112,0.17,0.068,0.399-0.101,0.516c-0.022,0.019-0.987,0.751-0.987,3.145c0,0.103-0.041,0.2-0.117,0.271
	c-0.074,0.071-0.185,0.104-0.278,0.102c-0.043-0.004-4.267-0.237-7.197,1.325c-0.067,0.065-0.149,0.112-0.245,0.114l-2.799,0.03
	c-0.124,0.001-0.205-0.042-0.275-0.118c-0.352-0.372-0.893-0.758-1.125-0.733c-0.016,0.002-0.041,0.007-0.078,0.077
	c-0.041,0.08-0.11,0.144-0.193,0.176c-0.59,0.233-1.196,0.631-1.236,0.808c0.006,0,0.021,0.021,0.062,0.052
	c0.135,0.102,0.185,0.283,0.12,0.439c-0.021,0.053-0.118,0.334,0.078,0.421c0.09,0.041,0.162,0.116,0.196,0.211
	c0.035,0.094,0.03,0.198-0.013,0.289c-0.061,0.149,0.062,0.229,0.179,0.281c0.126,0.058,0.211,0.181,0.22,0.318
	c0,0,0.018,0.07,0.112,0.129c0.115,0.071,0.485,0.202,1.44-0.1c-0.016,0,0.156-0.116,0.291-0.406
	c0.064-0.143,0.205-0.229,0.369-0.215c0.076,0.006,1.852,0.164,2.972,0.839c0.229,0.075,4.44,1.393,7.715-1.628
	c0.062-0.059,0.146-0.094,0.233-0.099C37.009,33.633,40.884,33.385,42.097,29.946z M23.843,26.661
	c-0.174,0.111-0.225,0.342-0.112,0.516c0.11,0.175,0.342,0.224,0.517,0.114c2.635-1.685,4.319,0.203,4.391,0.285
	c0.074,0.085,0.179,0.129,0.283,0.129c0.086,0,0.172-0.03,0.242-0.09c0.156-0.134,0.176-0.369,0.041-0.525
	C29.183,27.064,27.041,24.619,23.843,26.661z M39.761,27.36c-0.196,0.062-0.305,0.274-0.239,0.471c0.009,0.027,0.87,2.749-1.05,3.95
	c-0.174,0.109-0.228,0.339-0.117,0.515c0.07,0.113,0.191,0.175,0.316,0.175c0.066,0,0.137-0.018,0.196-0.057
	c1.931-1.206,1.735-3.677,1.363-4.814C40.167,27.402,39.957,27.294,39.761,27.36z M14.112,24.294c0,0.89-0.723,1.612-1.611,1.612
	c-0.89,0-1.611-0.724-1.611-1.612c0-0.888,0.723-1.611,1.611-1.611S14.112,23.406,14.112,24.294z M13.365,24.294
	c0-0.477-0.388-0.865-0.864-0.865c-0.478,0-0.865,0.389-0.865,0.865c0,0.478,0.389,0.865,0.865,0.865
	C12.978,25.16,13.365,24.772,13.365,24.294z M11.666,22.061v-0.588l0.179-0.183l0.526,0.771h0.239h0.238l-0.745-1.037l0.698-0.714
	H12.57h-0.233l-0.67,0.725V20.31h-0.185H11.3v1.751h0.184H11.666z M13.876,20.765h0.322v1.227c0,0.206-0.051,0.356-0.15,0.454
	c-0.104,0.097-0.261,0.146-0.475,0.146c-0.177,0-0.316-0.034-0.421-0.103c-0.104-0.069-0.159-0.164-0.166-0.285h0.37
	c0.004,0.044,0.023,0.077,0.062,0.097c0.037,0.021,0.096,0.03,0.174,0.03c0.098,0,0.166-0.022,0.209-0.069
	c0.041-0.046,0.062-0.123,0.062-0.229v-0.16l-0.026,0.042c-0.076,0.104-0.185,0.156-0.324,0.156c-0.17,0-0.307-0.062-0.409-0.182
	c-0.104-0.12-0.155-0.28-0.155-0.479c0-0.204,0.051-0.368,0.15-0.492c0.102-0.124,0.234-0.185,0.398-0.185
	c0.145,0,0.258,0.052,0.338,0.158c0.016,0.02,0.029,0.042,0.041,0.064V20.765L13.876,20.765z M13.867,21.405
	c0-0.12-0.024-0.212-0.075-0.28c-0.052-0.066-0.121-0.101-0.21-0.101s-0.157,0.034-0.208,0.102c-0.05,0.068-0.074,0.162-0.074,0.283
	c0,0.118,0.024,0.21,0.074,0.277c0.051,0.066,0.119,0.1,0.207,0.1c0.09,0,0.159-0.034,0.211-0.101
	C13.843,21.617,13.867,21.523,13.867,21.405z"/>
</svg>
