<?xml version="1.0" encoding="utf-8"?>
<!-- Generator: Adobe Illustrator 16.0.4, SVG Export Plug-In . SVG Version: 6.00 Build 0)  -->
<!DOCTYPE svg PUBLIC "-//W3C//DTD SVG 1.1//EN" "http://www.w3.org/Graphics/SVG/1.1/DTD/svg11.dtd">
<svg version="1.1" id="Layer_1" xmlns="http://www.w3.org/2000/svg" xmlns:xlink="http://www.w3.org/1999/xlink" x="0px" y="0px"
	 width="50px" height="50px" viewBox="0 0 50 50" enable-background="new 0 0 50 50" xml:space="preserve">
<path d="M40.125,26.562c0-0.508-0.384-0.91-0.875-0.975v-2.057c0-0.552-0.447-1-1-1s-1,0.448-1,1v2.031h-0.375v-2.031
	c0-0.552-0.447-1-1-1s-1,0.448-1,1v2.031H34.15v-2.129c0-3.913-2.959-7.096-6.598-7.096h-0.066c1.104-0.782,1.832-2.064,1.832-3.521
	c0-2.384-1.935-4.317-4.318-4.317s-4.318,1.933-4.318,4.317c0,1.457,0.728,2.739,1.832,3.521h-0.066
	c-3.639,0-6.598,3.183-6.598,7.096v2.129h-0.725v-2.031c0-0.552-0.447-1-1-1s-1,0.448-1,1v2.031H12.75v-2.031c0-0.552-0.447-1-1-1
	s-1,0.448-1,1v2.057c-0.49,0.064-0.875,0.467-0.875,0.975s0.385,0.912,0.875,0.976v2.057c0,0.552,0.447,1,1,1s1-0.448,1-1v-2.03
	h0.375v2.03c0,0.552,0.447,1,1,1s1-0.448,1-1v-2.03h0.972c0.338,0.625,0.992,1.056,1.753,1.056c0.762,0,1.415-0.431,1.753-1.056
	h0.85v11.937c0,1.104,0.896,2,2,2c1.104,0,2-0.896,2-2v-8.21h1.098v8.21c0,1.104,0.896,2,2,2c1.104,0,2-0.896,2-2V27.562h0.85
	c0.338,0.627,0.991,1.057,1.753,1.057c0.761,0,1.415-0.43,1.753-1.057h0.972v2.031c0,0.553,0.447,1,1,1s1-0.447,1-1v-2.031h0.375
	v2.031c0,0.553,0.447,1,1,1s1-0.447,1-1v-2.057C39.741,27.475,40.125,27.07,40.125,26.562z M19.85,25.562v-2.128
	c0-0.746,0.231-1.422,0.603-1.957v4.085H19.85z M29.549,21.478c0.37,0.535,0.603,1.211,0.603,1.957v2.129h-0.603V21.478z"/>
</svg>
