<?xml version="1.0" encoding="utf-8"?>
<!-- Generator: Adobe Illustrator 16.0.4, SVG Export Plug-In . SVG Version: 6.00 Build 0)  -->
<!DOCTYPE svg PUBLIC "-//W3C//DTD SVG 1.1//EN" "http://www.w3.org/Graphics/SVG/1.1/DTD/svg11.dtd">
<svg version="1.1" id="Layer_1" xmlns="http://www.w3.org/2000/svg" xmlns:xlink="http://www.w3.org/1999/xlink" x="0px" y="0px"
	 width="50px" height="50px" viewBox="0 0 50 50" enable-background="new 0 0 50 50" xml:space="preserve">
<path d="M34.348,14.538c-1.07-0.588-2.295-0.926-3.602-0.926c-2.311,0-4.377,1.051-5.745,2.699
	c-1.371-1.648-3.436-2.699-5.748-2.699c-1.305,0-2.531,0.338-3.602,0.926c-2.301,1.274-3.857,3.723-3.857,6.537
	c0,0.803,0.131,1.576,0.369,2.3c0.102,0.461,0.277,0.934,0.5,1.409h4.818l1.209-2.024c0.176-0.297,0.494-0.48,0.84-0.487
	c0.314-0.021,0.67,0.165,0.857,0.455l1.745,2.69l2.146-5.797c0.145-0.392,0.518-0.652,0.936-0.653h0.002
	c0.418,0,0.792,0.26,0.938,0.651l1.922,5.165h3.307c0.555,0,1,0.448,1,1c0,0.553-0.445,1-1,1h-4c-0.418,0-0.791-0.261-0.938-0.65
	l-1.225-3.291l-1.9,5.14c-0.131,0.354-0.45,0.604-0.827,0.646c-0.037,0.005-0.074,0.007-0.109,0.007c-0.336,0-0.653-0.17-0.84-0.456
	l-1.957-3.016l-0.678,1.134c-0.183,0.303-0.509,0.487-0.859,0.487h-4.17c3.57,4.858,11.123,9.604,11.123,9.604
	s11.554-7.259,12.835-13.014c0.236-0.724,0.367-1.497,0.367-2.3C38.205,18.261,36.648,15.812,34.348,14.538z"/>
</svg>
