<?xml version="1.0" encoding="utf-8"?>
<!-- Generator: Adobe Illustrator 16.0.4, SVG Export Plug-In . SVG Version: 6.00 Build 0)  -->
<!DOCTYPE svg PUBLIC "-//W3C//DTD SVG 1.1//EN" "http://www.w3.org/Graphics/SVG/1.1/DTD/svg11.dtd">
<svg version="1.1" id="Layer_1" xmlns="http://www.w3.org/2000/svg" xmlns:xlink="http://www.w3.org/1999/xlink" x="0px" y="0px"
	 width="50px" height="50px" viewBox="0 0 50 50" enable-background="new 0 0 50 50" xml:space="preserve">
<path d="M40.123,16.816c0-0.508-0.384-0.911-0.875-0.975v-2.057c0-0.552-0.447-1-1-1s-1,0.448-1,1v2.031h-0.375v-2.031
	c0-0.552-0.447-1-1-1s-1,0.448-1,1v2.031h-0.912c-0.316-0.687-1.007-1.166-1.812-1.166c-0.807,0-1.5,0.479-1.815,1.166h-2.235
	c0.752-0.777,1.221-1.832,1.221-2.999c0-2.384-1.934-4.317-4.318-4.317c-2.384,0-4.318,1.933-4.318,4.317
	c0,1.167,0.469,2.222,1.221,2.999h-2.235c-0.315-0.688-1.01-1.166-1.815-1.166c-0.807,0-1.496,0.479-1.812,1.166h-0.912v-2.031
	c0-0.552-0.447-1-1-1s-1,0.448-1,1v2.031h-0.375v-2.031c0-0.552-0.447-1-1-1s-1,0.448-1,1v2.057
	c-0.49,0.064-0.875,0.467-0.875,0.975c0,0.508,0.385,0.911,0.875,0.975v2.057c0,0.552,0.447,1,1,1s1-0.448,1-1v-2.031h0.375v2.031
	c0,0.552,0.447,1,1,1s1-0.448,1-1v-2.031h0.848c0.162,0.795,0.494,1.437,1.026,1.92c0.769,0.695,1.679,0.869,2.587,0.869
	c0.291,0,0.579-0.02,0.865-0.043v18.938c0,1.104,0.896,2,2,2s2-0.896,2-2v-8.21h1.098v8.21c0,1.104,0.896,2,2,2c1.104,0,2-0.896,2-2
	V20.562c0.286,0.024,0.574,0.043,0.865,0.043c0.908,0,1.818-0.174,2.587-0.869c0.533-0.483,0.864-1.125,1.026-1.92h0.848v2.031
	c0,0.552,0.447,1,1,1s1-0.448,1-1v-2.031h0.375v2.031c0,0.552,0.447,1,1,1s1-0.448,1-1V17.79
	C39.739,17.727,40.123,17.324,40.123,16.816z"/>
</svg>
