<?xml version="1.0" encoding="utf-8"?>
<!-- Generator: Adobe Illustrator 16.0.4, SVG Export Plug-In . SVG Version: 6.00 Build 0)  -->
<!DOCTYPE svg PUBLIC "-//W3C//DTD SVG 1.1//EN" "http://www.w3.org/Graphics/SVG/1.1/DTD/svg11.dtd">
<svg version="1.1" id="Layer_1" xmlns="http://www.w3.org/2000/svg" xmlns:xlink="http://www.w3.org/1999/xlink" x="0px" y="0px"
	 width="50px" height="50px" viewBox="0 0 50 50" enable-background="new 0 0 50 50" xml:space="preserve">
<path d="M21.792,18.167c0-1.233-1.003-2.236-2.236-2.236s-2.236,1.003-2.236,2.236s1.003,2.236,2.236,2.236
	S21.792,19.399,21.792,18.167z M18.818,18.167c0-0.406,0.33-0.736,0.736-0.736c0.406,0,0.736,0.33,0.736,0.736
	s-0.33,0.736-0.736,0.736C19.148,18.903,18.818,18.573,18.818,18.167z M36.056,30.25h-15.75v-1.656l1.896,0.732
	c0.086,0.032,0.178,0.049,0.27,0.049h6.153c0.414,0,0.75-0.336,0.75-0.75s-0.336-0.75-0.75-0.75h-6.014l-2.306-0.89v-3.811
	c2.445-0.366,4.333-2.461,4.333-5.008c0-2.803-2.28-5.083-5.083-5.083c-2.803,0-5.083,2.28-5.083,5.083
	c0,2.546,1.888,4.642,4.333,5.008v3.232l-4.591-1.773c-0.387-0.149-0.82,0.043-0.97,0.43c-0.149,0.386,0.043,0.819,0.43,0.97
	l5.131,1.98v2.236h-4.861c-0.414,0-0.75,0.336-0.75,0.75s0.336,0.75,0.75,0.75h4.861v4.416c0,0.414,0.336,0.75,0.75,0.75
	s0.75-0.336,0.75-0.75V31.75h15v4.416c0,0.414,0.336,0.75,0.75,0.75s0.75-0.336,0.75-0.75V31
	C36.806,30.586,36.47,30.25,36.056,30.25z M15.973,18.167c0-1.976,1.607-3.583,3.583-3.583s3.583,1.607,3.583,3.583
	s-1.607,3.583-3.583,3.583S15.973,20.144,15.973,18.167z M30.25,28.625c0-0.414,0.336-0.75,0.75-0.75h5.056
	c0.414,0,0.75,0.336,0.75,0.75s-0.336,0.75-0.75,0.75H31C30.586,29.375,30.25,29.039,30.25,28.625z"/>
</svg>
