<?xml version="1.0" encoding="utf-8"?>
<!-- Generator: Adobe Illustrator 16.0.4, SVG Export Plug-In . SVG Version: 6.00 Build 0)  -->
<!DOCTYPE svg PUBLIC "-//W3C//DTD SVG 1.1//EN" "http://www.w3.org/Graphics/SVG/1.1/DTD/svg11.dtd">
<svg version="1.1" id="Layer_1" xmlns="http://www.w3.org/2000/svg" xmlns:xlink="http://www.w3.org/1999/xlink" x="0px" y="0px"
	 width="50px" height="50px" viewBox="0 0 50 50" enable-background="new 0 0 50 50" xml:space="preserve">
<path d="M39.959,34.291l-2.961,3.646c-0.26,0.317-0.65,0.506-1.062,0.506H11.102c-0.756,0-1.367-0.611-1.367-1.367V29.1
	c0-0.754,0.611-1.365,1.367-1.365c0.754,0,1.365,0.611,1.365,1.365v6.608h21.621c-0.076-0.048-0.16-0.077-0.227-0.142l-6.496-6.076
	l-11.101,3.201c-0.559,0.154-1.158-0.049-1.496-0.523c-0.336-0.477-0.334-1.111,0.004-1.586l7.975-11.163
	c0.417-0.585,1.21-0.742,1.824-0.374l6.068,3.688l7.613,0.217c0.754,0.021,1.35,0.65,1.328,1.406
	c-0.021,0.754-0.68,1.353-1.408,1.328l-7.975-0.228c-0.234-0.009-0.467-0.075-0.67-0.198l-5.294-3.217l-4.953,6.934l8.074-2.328
	c0.465-0.131,0.963-0.014,1.312,0.314l7.062,6.607c0.311,0.291,0.436,0.691,0.41,1.084l1.695-2.088
	c0.475-0.584,1.336-0.678,1.922-0.196C40.346,32.844,40.436,33.704,39.959,34.291z M26.254,19.075c2.076,0,3.758-1.683,3.758-3.759
	c0-2.077-1.682-3.76-3.758-3.76c-2.078,0-3.759,1.683-3.759,3.76C22.495,17.393,24.176,19.075,26.254,19.075z"/>
</svg>
