<?xml version="1.0" encoding="utf-8"?>
<!-- Generator: Adobe Illustrator 16.0.4, SVG Export Plug-In . SVG Version: 6.00 Build 0)  -->
<!DOCTYPE svg PUBLIC "-//W3C//DTD SVG 1.1//EN" "http://www.w3.org/Graphics/SVG/1.1/DTD/svg11.dtd">
<svg version="1.1" id="Layer_1" xmlns="http://www.w3.org/2000/svg" xmlns:xlink="http://www.w3.org/1999/xlink" x="0px" y="0px"
	 width="50px" height="50px" viewBox="0 0 50 50" enable-background="new 0 0 50 50" xml:space="preserve">
<path d="M17.339,29.203l1.634-8.442c0.048-0.247,0.206-0.458,0.43-0.573c0.225-0.112,0.487-0.119,0.717-0.013l7.625,3.541
	c0.14,0.063,0.258,0.166,0.342,0.295l2.941,4.528l5.555-6.519c0.292-0.346,0.808-0.386,1.15-0.094
	c0.345,0.294,0.386,0.809,0.093,1.152l-6.266,7.353c-0.156,0.184-0.383,0.287-0.622,0.287c-0.018,0-0.035,0-0.053-0.002
	c-0.257-0.018-0.491-0.152-0.632-0.371l-3.411-5.248l-6.465-3.002l-1.437,7.416c-0.084,0.443-0.504,0.732-0.957,0.648
	C17.543,30.074,17.253,29.645,17.339,29.203z M37.715,31.332H12.286c-0.452,0-0.817,0.365-0.817,0.816s0.365,0.816,0.817,0.816
	h25.429c0.452,0,0.816-0.365,0.816-0.816S38.167,31.332,37.715,31.332z M16.27,21.528c1.241,0,2.247-1.006,2.247-2.246
	c0-1.241-1.005-2.247-2.247-2.247s-2.247,1.006-2.247,2.247C14.022,20.522,15.027,21.528,16.27,21.528z"/>
</svg>
