<?xml version="1.0" encoding="iso-8859-1"?>
<!-- Generator: Adobe Illustrator 17.1.0, SVG Export Plug-In . SVG Version: 6.00 Build 0)  -->
<!DOCTYPE svg PUBLIC "-//W3C//DTD SVG 1.1//EN" "http://www.w3.org/Graphics/SVG/1.1/DTD/svg11.dtd">
<svg version="1.1" id="Capa_1" xmlns="http://www.w3.org/2000/svg" xmlns:xlink="http://www.w3.org/1999/xlink" x="0px" y="0px"
	 viewBox="0 0 64 64" style="enable-background:new 0 0 64 64;" xml:space="preserve">
<g>
	<path d="M56.106,29.384l-10.465,5.061l-1.875-1.708l-2.102-4.647l0.81,0.09c0.08,0.009,0.16,0.014,0.241,0.014
		c0.353,0,0.7-0.084,1.016-0.248l5.564-2.889c1.08-0.56,1.5-1.89,0.939-2.97c-0.561-1.079-1.89-1.498-2.97-0.939l-4.971,2.581
		l-2.436-0.269c-0.464-0.052-0.909,0.048-1.291,0.256l-6.949,1.642c-0.147,0.007-0.296,0.029-0.444,0.067l-1.748,0.451l-0.493,0.116
		L28.938,26l-0.182,0.047l-3.463-3.699c1.271-1.812,2.024-4.013,2.024-6.39c0-6.153-5.005-11.159-11.158-11.159
		c-6.152,0-11.158,5.006-11.158,11.159c0,6.153,5.006,11.159,11.158,11.159c2.186,0,4.22-0.641,5.944-1.731l4.331,4.626
		c0.422,0.451,1.007,0.697,1.607,0.697c0.184,0,0.368-0.023,0.55-0.07l2.794-0.721l6.352,10.168l-7.026,15.649
		c-0.651,1.574,0.095,3.377,1.669,4.029C32.767,59.925,33.166,60,33.56,60c1.21,0,2.357-0.716,2.85-1.903l7.203-15.973L59.35,34.63
		c1.448-0.896,1.896-2.796,1.001-4.244C59.454,28.936,57.554,28.489,56.106,29.384z M7.644,15.957c0-4.695,3.82-8.516,8.516-8.516
		c4.696,0,8.516,3.82,8.516,8.516c0,2.053-0.73,3.938-1.944,5.41c-0.327,0.093-0.638,0.253-0.904,0.501
		c-0.271,0.254-0.454,0.563-0.567,0.892c-1.424,1.07-3.186,1.713-5.101,1.713C11.465,24.474,7.644,20.653,7.644,15.957z"/>
	<circle cx="32.751" cy="19.303" r="4.76"/>
</g>
</svg>
