<?xml version="1.0" encoding="utf-8"?>
<!-- Generator: Adobe Illustrator 16.0.4, SVG Export Plug-In . SVG Version: 6.00 Build 0)  -->
<!DOCTYPE svg PUBLIC "-//W3C//DTD SVG 1.1//EN" "http://www.w3.org/Graphics/SVG/1.1/DTD/svg11.dtd">
<svg version="1.1" id="Layer_1" xmlns="http://www.w3.org/2000/svg" xmlns:xlink="http://www.w3.org/1999/xlink" x="0px" y="0px"
	 width="50px" height="50px" viewBox="0 0 50 50" enable-background="new 0 0 50 50" xml:space="preserve">
<path d="M44.318,39.4c-0.179,0.337,0.188,1.46,0.309,1.83c0.012,0.037,0.019,0.075,0.021,0.113c0.008,0.134,0.06,1.277-0.352,2.074
	c-0.021,0.238-0.104,0.742-0.459,1.084c-0.187,0.181-0.419,0.289-0.684,0.319c-0.206,0.175-0.547,0.341-1.021,0.31
	c-0.127,0.054-0.319,0.109-0.565,0.109c-0.118,0-0.25-0.014-0.393-0.046c-0.189,0.032-0.54,0.054-0.989-0.09
	c-0.22,0.035-0.491,0.001-0.712-0.179c-0.245-0.199-0.365-0.521-0.36-0.959c-0.052-0.036-0.103-0.082-0.149-0.135
	c-0.288-0.326-0.364-0.844-0.234-1.58c0.009-0.053,0.028-0.104,0.056-0.148c0.036-0.062,0.866-1.466,1.909-2.156
	c0.084-0.734,0.158-1.74,0.091-2.035c-0.271-1.193-0.543-2.863-0.018-4.201c-0.654-0.242-1.776-0.699-2.307-1.172
	c-0.488-0.437-0.86-0.787-1.191-1.158c-0.289,1.035-1.223,2.477-3.599,4.359c0.078,1.022,0.301,4.92-0.603,7.205
	c-0.092,0.23-0.354,0.344-0.582,0.252c-0.229-0.09-0.343-0.351-0.252-0.58c0.945-2.393,0.527-6.992,0.522-7.039
	c-0.014-0.152,0.05-0.302,0.172-0.396c3.876-3.013,3.64-4.565,3.476-4.97c-0.014-0.033-0.016-0.069-0.021-0.104
	c-0.702,1.438-2.332,2.45-4.229,2.45c-2.534,0-4.597-1.807-4.597-4.027v-1.851c0-0.248,0.2-0.448,0.448-0.448
	s0.448,0.201,0.448,0.448v1.849c0,1.727,1.659,3.133,3.699,3.133c2.041,0,3.701-1.406,3.701-3.133c0-0.248,0.2-0.447,0.448-0.447
	s0.448,0.199,0.448,0.447c0,0.415-0.092,0.807-0.227,1.184c0.027-0.023,0.053-0.049,0.085-0.066c0.207-0.105,0.458-0.04,0.583,0.154
	c0.539,0.832,0.991,1.291,1.862,2.068c0.5,0.447,1.954,0.987,2.473,1.158c0.13,0.043,0.232,0.143,0.28,0.27s0.035,0.27-0.035,0.386
	c-0.669,1.124-0.387,2.838-0.117,4.028c0.138,0.597-0.059,2.238-0.1,2.561c-0.018,0.143-0.102,0.268-0.228,0.336
	c-0.806,0.445-1.552,1.59-1.732,1.881c-0.093,0.602,0.037,0.75,0.039,0.752c0.122-0.009,0.226,0.041,0.316,0.139
	c0.09,0.1,0.095,0.228,0.076,0.359c-0.054,0.389,0.017,0.498,0.018,0.499c0.101-0.036,0.223-0.056,0.324-0.019
	c0.414,0.158,0.669,0.09,0.679,0.087c0.081-0.022,0.177-0.026,0.256-0.003c0.322,0.093,0.49-0.002,0.498-0.006
	c0.088-0.051,0.213-0.086,0.31-0.069c0.341,0.049,0.463-0.088,0.476-0.104c0.085-0.133,0.23-0.201,0.382-0.189
	c0.152,0.001,0.206-0.038,0.246-0.077c0.156-0.151,0.189-0.489,0.189-0.565c0-0.08,0.021-0.158,0.062-0.229
	c0.269-0.454,0.3-1.27,0.288-1.613c-0.286-0.882-0.551-1.861-0.229-2.47c0.628-1.187,1.479-4.854,1.487-4.892
	c0.379-2.525-0.799-4.23-1.578-5.358c-1.129-1.632-3.283-2.647-3.304-2.657c-0.131-0.061-0.226-0.181-0.251-0.322
	c-0.522-2.722-2.925-3.398-4.133-3.355c-2.728,0.074-5.916-1.583-6.051-1.654c-0.146-0.077-0.238-0.23-0.238-0.396
	c0-1.973,0.354-3.046,0.37-3.09c0.011-0.033,0.025-0.064,0.044-0.094c0.652-1.047,0.624-1.508,0.582-1.658
	c-0.026-0.091-0.071-0.118-0.08-0.122c-0.212-0.065-0.319-0.266-0.286-0.486c0.488-3.267-1.844-3.833-1.945-3.856
	c-0.002,0-0.629-0.11-1.065-0.075c-0.024,0.003-0.077,0.003-0.102,0c-0.371-0.03-0.909,0.047-1.086,0.079
	c-0.079,0.02-2.409,0.612-1.924,3.853c0.033,0.22-0.1,0.43-0.312,0.495c0.011-0.006-0.028,0.018-0.055,0.113
	c-0.043,0.15-0.072,0.61,0.58,1.657c0.019,0.029,0.033,0.061,0.044,0.094c0.015,0.044,0.37,1.118,0.37,3.09
	c0,0.216-0.154,0.402-0.367,0.441c-0.046,0.008-4.623,0.864-6.703,2.305c-0.205,0.141-0.483,0.09-0.624-0.113
	c-0.041-0.059-0.061-0.124-0.071-0.19c-0.621-0.956-2.217-2.411-2.693-2.835c-0.5-0.447-1.955-0.987-2.473-1.158
	c-0.129-0.043-0.232-0.141-0.28-0.269c-0.048-0.128-0.035-0.27,0.035-0.387c0.671-1.129,0.388-2.84,0.117-4.028
	c-0.135-0.598,0.061-2.238,0.102-2.561c0.018-0.142,0.102-0.267,0.229-0.336c0.724-0.402,1.457-1.433,1.732-1.88
	c0.093-0.604-0.039-0.751-0.04-0.752c-0.146,0.01-0.227-0.042-0.316-0.14c-0.09-0.099-0.096-0.227-0.077-0.359
	c0.054-0.388-0.016-0.499-0.017-0.5c-0.1,0.036-0.222,0.056-0.323,0.018c-0.413-0.157-0.666-0.089-0.678-0.086
	c-0.08,0.022-0.176,0.026-0.256,0.002c-0.324-0.091-0.495,0.004-0.502,0.008c-0.088,0.05-0.21,0.083-0.309,0.067
	c-0.337-0.048-0.456,0.088-0.468,0.103c-0.085,0.135-0.217,0.209-0.384,0.191c-0.141,0.002-0.205,0.039-0.245,0.076
	C9.83,8.107,9.792,8.428,9.791,8.529c0,0.079-0.022,0.158-0.062,0.226c-0.268,0.452-0.3,1.27-0.289,1.614
	c0.286,0.883,0.552,1.863,0.229,2.47c-0.628,1.185-1.479,4.853-1.487,4.89c-0.364,2.419,0.746,4.014,1.556,5.178l0.118,0.17
	c1.119,1.615,3.2,2.665,3.221,2.674c0.125,0.062,0.213,0.18,0.24,0.316c0.521,2.713,2.905,3.376,4.121,3.355
	c-0.076-0.289-0.124-0.588-0.124-0.896c0-0.248,0.2-0.447,0.448-0.447c0.248,0,0.448,0.199,0.448,0.447
	c0,1.727,1.66,3.133,3.7,3.133c2.041,0,3.7-1.406,3.7-3.133v-1.847c0-0.248,0.2-0.448,0.448-0.448s0.448,0.201,0.448,0.448v1.849
	c0,2.221-2.062,4.028-4.598,4.028c-1.848,0-3.435-0.966-4.164-2.347c-0.037,0.031-0.076,0.059-0.122,0.076
	c-0.15,0.5-0.166,2.043,3.502,4.896c0.121,0.094,0.186,0.243,0.171,0.396c-0.004,0.047-0.421,4.646,0.523,7.039
	c0.09,0.229-0.022,0.49-0.253,0.582c-0.054,0.02-0.11,0.03-0.165,0.03c-0.179,0-0.348-0.106-0.417-0.284
	c-0.902-2.285-0.679-6.182-0.602-7.205c-3.393-2.688-3.845-4.477-3.676-5.468c-1.507-0.215-3.623-1.176-4.229-3.819
	c-0.583-0.318-2.313-1.351-3.363-2.865l-0.116-0.167c-0.846-1.215-2.124-3.051-1.701-5.857c0.042-0.189,0.892-3.854,1.575-5.143
	c0.179-0.336-0.188-1.46-0.308-1.83c-0.012-0.037-0.019-0.076-0.021-0.114C8.539,10.398,8.522,9.969,8.59,9.468H7.542v3.362
	c0,0.248-0.2,0.448-0.448,0.448c-0.248,0-0.448-0.201-0.448-0.448V5.208c0-0.248,0.201-0.448,0.448-0.448
	c0.248,0,0.448,0.201,0.448,0.448V8.57h1.283c0.023-0.056,0.044-0.115,0.072-0.168C8.916,8.165,9,7.662,9.355,7.319
	C9.541,7.14,9.774,7.032,10.038,7c0.205-0.176,0.539-0.343,1.02-0.309c0.188-0.08,0.52-0.164,0.96-0.064
	c0.187-0.033,0.537-0.054,0.988,0.09c0.219-0.034,0.491,0,0.711,0.179c0.245,0.199,0.365,0.521,0.36,0.958
	c0.052,0.038,0.103,0.083,0.151,0.137c0.133,0.15,0.216,0.347,0.259,0.582h0.692V5.21c0-0.248,0.2-0.448,0.448-0.448
	s0.448,0.201,0.448,0.448v7.622c0,0.248-0.201,0.448-0.448,0.448c-0.248,0-0.448-0.201-0.448-0.448V9.471h-0.704
	c-0.005,0.035-0.005,0.064-0.012,0.101c-0.009,0.053-0.028,0.104-0.056,0.15c-0.037,0.063-0.869,1.465-1.91,2.155
	c-0.084,0.735-0.158,1.741-0.091,2.037c0.271,1.189,0.547,2.857,0.017,4.2c0.654,0.241,1.777,0.699,2.307,1.172
	c0.595,0.53,1.977,1.807,2.698,2.806c1.969-1.16,5.171-1.887,6.262-2.111c-0.034-1.374-0.25-2.199-0.306-2.392
	c-0.638-1.038-0.84-1.83-0.619-2.421c0.066-0.177,0.166-0.315,0.275-0.418c-0.425-3.836,2.637-4.574,2.669-4.582
	c0.049-0.009,0.775-0.142,1.339-0.093c0.514-0.047,1.241,0.084,1.271,0.09c0.05,0.011,3.114,0.749,2.69,4.585
	c0.108,0.103,0.208,0.241,0.273,0.417c0.221,0.591,0.018,1.383-0.621,2.422c-0.058,0.198-0.281,1.055-0.308,2.483
	c0.775,0.374,3.297,1.495,5.367,1.431c1.438-0.025,4.27,0.736,4.99,3.863c0.605,0.31,2.391,1.314,3.439,2.831
	c0.88,1.272,2.18,3.153,1.74,6.065C45.852,34.446,45.002,38.112,44.318,39.4z M33.052,30.166c0-0.355-0.284-0.646-0.635-0.646
	c-0.35,0-0.63,0.29-0.63,0.646c0,0.358,0.281,0.646,0.63,0.646C32.768,30.812,33.052,30.524,33.052,30.166z M21.011,30.166
	c0,0.358,0.282,0.646,0.632,0.646c0.349,0,0.631-0.288,0.631-0.646c0-0.355-0.282-0.646-0.631-0.646
	C21.293,29.521,21.011,29.811,21.011,30.166z M27.021,32.963c-2.434,0-4.413,1.98-4.413,4.414v5.095c0,0.247,0.2,0.448,0.448,0.448
	s0.448-0.201,0.448-0.448v-5.095c0-1.938,1.578-3.517,3.517-3.517c1.939,0,3.518,1.578,3.518,3.517v5.285
	c0,0.248,0.199,0.449,0.447,0.449s0.448-0.201,0.448-0.449v-5.285C31.436,34.943,29.456,32.963,27.021,32.963z M28.312,39.078
	c0.003,0,0.006,0,0.009,0c0.9,0,1.54-0.634,1.566-0.66c0.174-0.176,0.174-0.461-0.002-0.635c-0.174-0.173-0.459-0.173-0.634,0.004
	c-0.004,0.004-0.427,0.416-0.936,0.395c-0.288-0.001-0.57-0.135-0.846-0.381v-0.717c0.27,0.129,0.55,0.194,0.841,0.195
	c0.003,0,0.005,0,0.008,0c0.901,0,1.541-0.635,1.567-0.662c0.174-0.176,0.173-0.459-0.002-0.634s-0.459-0.173-0.634,0.002
	c-0.004,0.005-0.408,0.397-0.932,0.397c-0.001,0-0.002,0-0.004,0c-0.288-0.002-0.57-0.135-0.845-0.381v-0.791
	c0-0.248-0.201-0.448-0.448-0.448c-0.248,0-0.447,0.2-0.447,0.448v0.795c-0.272,0.244-0.554,0.375-0.839,0.377
	c-0.526,0.023-0.931-0.387-0.943-0.397c-0.173-0.173-0.456-0.174-0.632-0.001c-0.176,0.174-0.177,0.458-0.003,0.635
	c0.027,0.026,0.667,0.662,1.567,0.662c0.002,0,0.005,0,0.007,0c0.292-0.002,0.572-0.068,0.843-0.195v0.717
	c-0.272,0.244-0.555,0.375-0.84,0.379c-0.004,0-0.008,0-0.012,0c-0.517,0-0.923-0.389-0.932-0.396c-0.175-0.174-0.458-0.175-0.632,0
	c-0.176,0.174-0.177,0.457-0.003,0.633c0.027,0.027,0.666,0.662,1.566,0.662c0.003,0,0.006,0,0.008,0
	c0.292-0.002,0.573-0.067,0.842-0.195v0.955c-0.271,0.246-0.554,0.377-0.839,0.381c-0.003,0-0.007,0-0.012,0
	c-0.515,0-0.919-0.387-0.931-0.398c-0.173-0.173-0.456-0.175-0.632-0.001c-0.176,0.175-0.177,0.458-0.003,0.634
	c0.027,0.027,0.666,0.662,1.566,0.662c0.003,0,0.006,0,0.009,0c0.292,0,0.573-0.068,0.842-0.195v0.174
	c0,0.248,0.2,0.449,0.448,0.449s0.448-0.201,0.448-0.449V40.92c0.269,0.129,0.55,0.195,0.842,0.197c0.003,0,0.006,0,0.009,0
	c0.9,0,1.539-0.636,1.565-0.662c0.174-0.176,0.172-0.457-0.001-0.631c-0.173-0.175-0.457-0.176-0.633-0.003
	c-0.004,0.005-0.411,0.397-0.932,0.397c-0.004,0-0.008,0-0.012,0c-0.286-0.002-0.567-0.135-0.839-0.381v-0.955
	C27.74,39.012,28.021,39.078,28.312,39.078z M27.023,42.377c-0.301,0-0.543,0.244-0.543,0.545s0.243,0.543,0.543,0.543
	c0.299,0,0.541-0.243,0.541-0.543C27.564,42.621,27.323,42.377,27.023,42.377z M41.49,31.016c0.017,0.234,0.214,0.416,0.446,0.416
	c0.012,0,0.022,0,0.033-0.001c0.247-0.019,0.433-0.233,0.414-0.479c-0.311-4.252-4.08-4.693-4.118-4.697
	c-0.249-0.027-0.467,0.152-0.492,0.398s0.153,0.467,0.399,0.492C38.298,27.156,41.232,27.504,41.49,31.016z M5.781,5.507
	c-0.248,0-0.448,0.2-0.448,0.448v6.127c0,0.248,0.201,0.448,0.448,0.448c0.248,0,0.448-0.2,0.448-0.448V5.956
	C6.23,5.708,6.029,5.507,5.781,5.507z M16.94,12.532c0.248,0,0.448-0.2,0.448-0.448V5.957c0-0.248-0.201-0.448-0.448-0.448
	c-0.248,0-0.448,0.2-0.448,0.448v6.127C16.492,12.332,16.692,12.532,16.94,12.532z M4.468,7.3C4.22,7.3,4.02,7.501,4.02,7.75v2.541
	c0,0.248,0.201,0.448,0.448,0.448c0.248,0,0.448-0.201,0.448-0.448V7.75C4.917,7.501,4.716,7.3,4.468,7.3z M18.253,10.738
	c0.248,0,0.448-0.201,0.448-0.448V7.75c0-0.248-0.201-0.449-0.448-0.449c-0.248,0-0.448,0.201-0.448,0.449v2.541
	C17.805,10.539,18.005,10.738,18.253,10.738z M11.702,20.894c-0.025-0.245-0.249-0.426-0.491-0.401
	c-0.246,0.024-0.425,0.243-0.402,0.488c0.003,0.038,0.415,3.81,4.663,4.164c0.013,0.001,0.025,0.002,0.038,0.002
	c0.23,0,0.427-0.177,0.446-0.411c0.021-0.247-0.162-0.463-0.409-0.484C12.058,23.959,11.714,21.019,11.702,20.894z"/>
</svg>
