<?xml version="1.0" encoding="iso-8859-1"?>
<!-- Generator: Adobe Illustrator 17.1.0, SVG Export Plug-In . SVG Version: 6.00 Build 0)  -->
<!DOCTYPE svg PUBLIC "-//W3C//DTD SVG 1.1//EN" "http://www.w3.org/Graphics/SVG/1.1/DTD/svg11.dtd">
<svg version="1.1" id="Capa_1" xmlns="http://www.w3.org/2000/svg" xmlns:xlink="http://www.w3.org/1999/xlink" x="0px" y="0px"
	 viewBox="0 0 64 64" style="enable-background:new 0 0 64 64;" xml:space="preserve">
<g>
	<circle cx="12.424" cy="33.564" r="4.79"/>
	<path d="M57.473,41.202c-0.463-0.704-1.248-1.128-2.09-1.128H42.606c-0.035-0.584-0.039-1.159-0.01-1.699h11.192
		c0.828,0,1.5-0.671,1.5-1.5s-0.672-1.5-1.5-1.5h-7.432c0-0.336-0.152-0.665-0.46-0.853c-1.454-0.891-2.687-1.013-3.669-0.363
		c-0.435,0.288-0.761,0.713-1.004,1.216h-3.029v-2.812c0-0.552-0.447-1-1-1l-4.432-0.5c-2.447-0.276-6.26-0.276-8.516,0
		c-0.295,0.036-0.58,0.071-0.857,0.105l1.064-7.046c0.021-0.142,0.026-0.282,0.018-0.42c0.09-0.018,0.18-0.02,0.27-0.044
		c2.554-0.687,4.069-3.315,3.383-5.869c-0.688-2.555-3.315-4.069-5.87-3.383c-2.556,0.687-4.069,3.315-3.383,5.869
		c0.298,1.109,0.975,2.004,1.84,2.626c-0.1,0.192-0.178,0.398-0.212,0.624l-1.333,8.833c-0.027,0.178-0.022,0.352-0.002,0.523v4.473
		c0,0.552,0.445,0.953,0.994,0.894l3.705-0.394c2.596-0.276,7.088,0.224,9.748,0.5c2.217,0.23,3.905,0.078,4.411,0.021h2.563
		c-0.028,0.602-0.018,1.184,0.012,1.699H11.201c-0.899,0-1.729,0.483-2.174,1.266l-4.079,7.185c-0.682,1.201-0.261,2.727,0.94,3.409
		c0.39,0.221,0.813,0.326,1.232,0.326c0.87,0,1.716-0.455,2.176-1.266l3.36-5.92h41.378l3.977,6.058
		c0.759,1.155,2.309,1.473,3.462,0.717c1.154-0.758,1.476-2.308,0.718-3.462L57.473,41.202z"/>
</g>
</svg>
