<?xml version="1.0" encoding="utf-8"?>
<!-- Generator: Adobe Illustrator 16.0.4, SVG Export Plug-In . SVG Version: 6.00 Build 0)  -->
<!DOCTYPE svg PUBLIC "-//W3C//DTD SVG 1.1//EN" "http://www.w3.org/Graphics/SVG/1.1/DTD/svg11.dtd">
<svg version="1.1" id="Layer_1" xmlns="http://www.w3.org/2000/svg" xmlns:xlink="http://www.w3.org/1999/xlink" x="0px" y="0px"
	 width="50px" height="50px" viewBox="0 0 50 50" enable-background="new 0 0 50 50" xml:space="preserve">
<path d="M29.083,20.945v-5.404c0-0.073-0.019-0.142-0.046-0.205C28.809,13.3,27.096,11.708,25,11.708s-3.809,1.593-4.037,3.628
	c-0.027,0.062-0.046,0.131-0.046,0.205v5.404c-0.86,0.223-1.5,0.999-1.5,1.929v13.417c0,1.104,0.896,2,2,2s2-0.896,2-2V22.875
	c0-0.931-0.64-1.706-1.5-1.929v-2.508c0.749,0.872,1.847,1.437,3.083,1.437s2.334-0.564,3.083-1.437v2.508
	c-0.86,0.223-1.5,0.999-1.5,1.929v13.417c0,1.104,0.896,2,2,2s2-0.896,2-2V22.875C30.583,21.943,29.943,21.168,29.083,20.945z
	 M25,18.875c-1.7,0-3.083-1.383-3.083-3.083S23.3,12.708,25,12.708s3.083,1.383,3.083,3.083S26.7,18.875,25,18.875z"/>
</svg>
