<?xml version="1.0" encoding="utf-8"?>
<!-- Generator: Adobe Illustrator 16.0.4, SVG Export Plug-In . SVG Version: 6.00 Build 0)  -->
<!DOCTYPE svg PUBLIC "-//W3C//DTD SVG 1.1//EN" "http://www.w3.org/Graphics/SVG/1.1/DTD/svg11.dtd">
<svg version="1.1" id="Capa_1" xmlns="http://www.w3.org/2000/svg" xmlns:xlink="http://www.w3.org/1999/xlink" x="0px" y="0px"
	 width="64px" height="64px" viewBox="0 0 64 64" enable-background="new 0 0 64 64" xml:space="preserve">
<g>
	<path fill="none" d="M31.508,19.596c2.312-0.402,4.006-2.343,4.036-4.701c-0.012-0.915-0.255-1.817-0.763-2.584
		c-1.274-1.925-3.887-2.767-6.003-1.724c-2.076,1.024-3.244,3.421-2.538,5.678C26.927,18.46,29.19,19.999,31.508,19.596z"/>
	<path fill="none" d="M13.632,46.288c0.433,0.137,0.866,0.272,1.299,0.41c1.487,0.469,2.974,0.937,4.46,1.409
		c0.968,0.308,1.859,0.523,2.874,0.209c0.826-0.254,1.547-0.784,2.02-1.514c0.699-1.078,0.927-2.382,1.334-3.585
		c0.193-0.569,0.401-1.125,0.575-1.698c0.156-0.511,0.373-0.998,0.702-1.42c1.176-1.515,2.958-1.113,4.463-0.363
		c0.855,0.427,1.93,0.789,2.426,1.673c0.408,0.727,0.445,1.588,0.443,2.415C34.227,44.718,34,45.616,34,46.514v3.872
		c0,0.742,0.618,1.349,1.359,1.513c0.645,0.144,1.67,0.039,1.797-0.719c0.023-0.134,0.019-0.267,0.029-0.402
		c0.18-2.572,0.357-5.146,0.539-7.719c0.123-1.75,0.594-3.992-0.748-5.429c-0.812-0.869-1.899-0.916-2.99-1.198
		c-0.674-0.174-1.342-0.377-1.984-0.642c-0.465-0.19-1.008-0.376-1.415-0.679c-0.292-0.215-0.476-0.486-0.584-0.786
		c-0.287-0.2-0.558-0.418-0.832-0.638c-0.459-0.363-0.989-0.658-1.472-0.992c-0.966-0.668-1.946-1.345-2.859-2.089
		c-0.306,1.192-0.654,2.375-0.96,3.564c-0.751,2.928-1.384,5.887-2.176,8.803c-0.154,0.566-0.441,1.207-0.94,1.545
		c-0.821,0.556-1.962,0.146-2.827-0.092c-1.11-0.306-2.207-0.688-3.334-0.93c-0.716-0.155-1.557-0.114-1.98,0.604
		c-0.221,0.371-0.222,0.793,0.005,1.168C12.823,45.59,13.264,46.172,13.632,46.288z"/>
	<path fill="none" d="M48.939,40.841c-1.609,4.513-3.217,9.024-4.826,13.536c-0.062,0.17-0.193,0.294-0.381,0.294
		c-1.455,0-2.899-0.001-4.354-0.002c-6.14-0.003-12.26-0.007-18.399-0.01c-3.672-0.002-7.31-0.005-10.979-0.007
		c0,0.116,0,0.232,0,0.348c1.594,0,3.188,0,4.781,0c6.233,0,12.466,0,18.699,0c3.675,0,7.35,0,11.022,0
		c0.967-2.858,1.935-5.685,2.901-8.544c1.446-4.272,2.892-8.547,4.337-12.819c-0.078,0.001-0.157,0.002-0.235,0.003
		C50.651,36.039,49.796,38.44,48.939,40.841z"/>
	<path d="M52.618,33.002c-0.062-0.099-0.165-0.173-0.319-0.171c-0.357,0.004-0.718,0.008-1.074,0.012
		c-0.188,0.003-0.326,0.123-0.388,0.294c-1.608,4.512-3.219,9.024-4.828,13.536c-0.855,2.399-1.711,4.799-2.568,7.198
		c-3.735-0.002-7.474-0.004-11.211-0.006c-6.139-0.004-12.279-0.008-18.418-0.01c-1.455-0.002-2.933-0.002-4.388-0.002
		C9.206,53.854,9,54.035,9,54.253c0,0.408,0,0.815,0,1.224C9,55.693,9.229,56,9.447,56c3.765,0,7.53,0,11.296,0
		c6.233,0,12.466,0,18.698,0c1.779,0,3.557,0,5.334,0c0.187,0,0.328-0.186,0.387-0.355c1.503-4.441,3.006-8.918,4.509-13.359
		c1.005-2.973,2.011-5.958,3.015-8.93C52.735,33.208,52.695,33.09,52.618,33.002z M47.404,46.456
		c-0.967,2.859-1.935,5.686-2.901,8.544c-3.673,0-7.348,0-11.022,0c-6.233,0-12.466,0-18.699,0c-1.594,0-3.188,0-4.781,0
		c0-0.115,0-0.231,0-0.348c3.669,0.002,7.307,0.005,10.979,0.007c6.139,0.003,12.259,0.007,18.399,0.01
		c1.455,0.001,2.899,0.002,4.354,0.002c0.188,0,0.319-0.124,0.381-0.294c1.609-4.512,3.217-9.023,4.826-13.536
		c0.856-2.4,1.712-4.802,2.566-7.201c0.078-0.001,0.157-0.002,0.235-0.003C50.296,37.909,48.851,42.184,47.404,46.456z"/>
	<path d="M30.652,20.446c3.106,0.124,5.651-2.509,5.692-5.55v0v0c-0.029-2.215-1.332-4.226-3.375-5.105
		c-2.057-0.886-4.448-0.397-6.057,1.134c-1.615,1.536-2.086,4.004-1.266,6.053C26.468,19.029,28.463,20.359,30.652,20.446z
		 M28.778,10.587c2.116-1.043,4.729-0.201,6.003,1.724c0.508,0.767,0.751,1.669,0.763,2.584c-0.03,2.358-1.724,4.299-4.036,4.701
		c-2.318,0.403-4.581-1.136-5.268-3.331C25.534,14.008,26.702,11.611,28.778,10.587z"/>
	<g>
		<path fill="none" d="M26.211,21.777c0.004-0.007,0.008-0.012,0.012-0.019C26.19,21.772,26.191,21.777,26.211,21.777z"/>
		<path fill="none" d="M24.064,27.532c-0.091,0.592,0.058,1.066,0.329,1.479c0.093,0.142,0.197,0.278,0.316,0.406
			c0.104,0.112,0.215,0.22,0.333,0.324c0.22,0.194,0.46,0.378,0.702,0.559c1.013,0.758,2.039,1.501,3.093,2.2
			c0.369,0.245,0.718,0.491,1.063,0.761c0.04,0.031,0.08,0.06,0.12,0.091c0.084,0.068,0.17,0.139,0.26,0.207
			c0.12,0.092,0.247,0.176,0.378,0.252c0.161,0.097,0.329,0.18,0.507,0.224c0.765,0.19,1.407-0.388,1.489-1.066
			c0.021-0.168,0.004-0.34-0.053-0.51c-0.027-0.087-0.055-0.175-0.105-0.259c-0.099-0.165-0.217-0.307-0.345-0.436
			c-0.356-0.358-0.803-0.604-1.257-0.857c-0.488-0.273-0.977-0.545-1.465-0.818c-0.481-0.268-1.08-0.494-1.481-0.89
			c-0.456-0.45-0.8-1.031-0.872-1.674c-0.125-1.115,0.609-2.026,1.431-2.684c0.059-0.048,0.122-0.071,0.184-0.083
			c0.361-0.07,0.725,0.374,0.383,0.648c-0.612,0.49-1.303,1.166-1.207,2.026c0.046,0.41,0.265,0.798,0.545,1.095
			c0.061,0.065,0.127,0.127,0.194,0.186c0.083,0.047,0.167,0.093,0.25,0.14c1.151,0.642,2.428,1.203,3.477,1.997
			c0.542,0.41,0.952,1.002,1.089,1.623c1.188,0.619,2.404,1.191,3.561,1.838c0.844,0.473,1.756,0.644,2.273-0.377
			c0.479-0.942-0.631-1.758-1.376-2.067c-0.003-0.001-0.005,0-0.008-0.001c-0.758-0.297-1.515-0.593-2.272-0.89
			c-0.447-0.175-0.947-0.314-1.373-0.545c-1.194-0.649-1.17-2.338-0.943-3.481c0.217-1.102,0.841-2.302,0.627-3.453
			c-0.077-0.415-0.285-0.771-0.585-0.856c-0.047-0.014-0.085-0.021-0.098-0.023c-0.001,0-0.006-0.001-0.007-0.001
			c-0.008,0-0.014,0-0.02-0.001c-0.602-0.066-1.204-0.142-1.804-0.231c-1.184-0.174-2.358-0.397-3.526-0.652l-0.015-0.053
			c0,0,0,0,0,0c-0.063,0.017-0.132,0.023-0.212,0c-0.046-0.014-0.082-0.01-0.126-0.021c-0.007-0.001-0.013-0.003-0.02-0.004"/>
		<path fill="none" d="M30.003,34.325c-0.287-0.2-0.558-0.418-0.832-0.638c-0.459-0.363-0.989-0.658-1.472-0.992
			c-0.966-0.668-1.946-1.345-2.859-2.089c-0.306,1.192-0.654,2.375-0.96,3.564c-0.751,2.928-1.384,5.887-2.176,8.803
			c-0.154,0.566-0.441,1.207-0.94,1.545c-0.821,0.556-1.962,0.146-2.827-0.092c-1.11-0.306-2.207-0.688-3.334-0.93
			c-0.716-0.155-1.557-0.114-1.98,0.604c-0.221,0.371-0.222,0.793,0.005,1.168c0.195,0.322,0.636,0.904,1.004,1.021
			c0.433,0.137,0.866,0.272,1.299,0.41c1.487,0.469,2.974,0.937,4.46,1.409c0.968,0.308,1.859,0.523,2.874,0.209
			c0.826-0.254,1.547-0.784,2.02-1.514c0.699-1.078,0.927-2.382,1.334-3.585c0.193-0.569,0.401-1.125,0.575-1.698
			c0.156-0.511,0.373-0.998,0.702-1.42c1.176-1.515,2.958-1.113,4.463-0.363c0.855,0.427,1.93,0.789,2.426,1.673
			c0.408,0.727,0.445,1.588,0.443,2.415C34.227,44.718,34,45.616,34,46.514v3.872c0,0.742,0.618,1.349,1.359,1.513
			c0.645,0.144,1.67,0.039,1.797-0.719c0.023-0.134,0.019-0.267,0.029-0.402c0.18-2.572,0.357-5.146,0.539-7.719
			c0.123-1.75,0.594-3.992-0.748-5.429c-0.812-0.869-1.899-0.916-2.99-1.198c-0.674-0.174-1.342-0.377-1.984-0.642
			c-0.465-0.19-1.008-0.376-1.415-0.679C30.295,34.896,30.111,34.625,30.003,34.325z"/>
		<path d="M26.223,21.759c-0.004,0.006-0.007,0.012-0.012,0.019C26.326,21.778,26.296,21.729,26.223,21.759z"/>
		<path d="M27.284,21.618"/>
		<path d="M38.085,31.093c-1.142-0.445-2.278-0.892-3.418-1.338c-0.127-0.058-0.179-0.104-0.26-0.183
			c-0.442-0.43-0.468-1.148-0.44-1.72c0.081-1.695,1.592-4.015,0.251-5.562c-0.243-0.281-0.594-0.424-0.952-0.472
			c-1.01-0.135-2.019-0.254-3.023-0.426c-1.024-0.175-2.042-0.385-3.052-0.626c-1.156-0.141-2.294,0.891-2.686,2.09
			c-0.26,0.797-0.484,1.61-0.708,2.419c-0.251,0.909-0.594,1.893-0.566,2.848c0.022,0.76,0.423,1.366,0.932,1.879
			c-0.056,0.232-0.108,0.465-0.165,0.696c-0.356,1.433-0.786,2.844-1.143,4.276c-0.423,1.695-0.832,3.396-1.247,5.094
			c-0.255,1.045-0.403,2.238-0.874,3.215c-0.205,0.425-0.453,0.693-0.943,0.701c-0.54,0.008-1.12-0.198-1.636-0.338
			c-1.114-0.301-2.209-0.672-3.334-0.931c-0.801-0.182-1.541-0.168-2.242,0.31c-0.683,0.463-1.02,1.219-0.875,2.031
			c0.137,0.771,0.998,1.767,1.739,2c0.455,0.143,0.909,0.286,1.364,0.43c1.481,0.467,2.962,0.934,4.443,1.404
			c1.003,0.316,1.925,0.488,2.982,0.256c1.991-0.438,3.082-2.145,3.626-3.981c0.189-0.638,0.386-1.272,0.599-1.901
			c0.132-0.392,0.363-0.803,0.442-1.205c0.07-0.354,0.196-0.701,0.363-1.021c0.273-0.524,0.688-0.965,1.265-1.146
			c1.015-0.312,2.066,0.315,2.935,0.752c0.446,0.225,0.92,0.431,1.337,0.703c0.371,0.242,0.554,0.723,0.669,1.127
			c0.182,0.643,0.189,1.34,0.129,2c-0.093,1.021-0.009,2.086-0.009,3.111c0,1.032-0.125,2.143,0.037,3.167
			c0.166,1.054,0.833,1.716,1.872,1.945c1.096,0.243,2.261-0.249,2.454-1.408c0.126-0.758,0.114-1.569,0.168-2.334
			c0.192-2.754,0.385-5.509,0.577-8.263c0.115-1.664-0.536-3.467-2.028-4.334c-0.838-0.487-1.874-0.545-2.795-0.793
			c-0.705-0.189-1.387-0.453-2.05-0.756c0.383-0.076,0.75-0.264,1.077-0.582c0.271-0.269,0.438-0.565,0.518-0.873
			c0.413,0.209,0.826,0.414,1.234,0.619c0.543,0.271,1.098,0.51,1.615,0.83c0.449,0.277,0.924,0.533,1.443,0.652
			c1.135,0.261,2.29-0.591,2.439-1.743C40.314,32.425,39.148,31.531,38.085,31.093z M32.002,35.79
			c0.643,0.265,1.311,0.468,1.984,0.642c1.091,0.282,2.179,0.329,2.99,1.198c1.342,1.437,0.871,3.679,0.748,5.429
			c-0.182,2.572-0.359,5.146-0.539,7.719c-0.011,0.136-0.006,0.269-0.029,0.402c-0.127,0.758-1.152,0.862-1.797,0.719
			C34.618,51.734,34,51.128,34,50.386v-3.872c0-0.897,0.227-1.796,0.229-2.689c0.002-0.827-0.035-1.688-0.443-2.415
			c-0.496-0.884-1.571-1.246-2.426-1.673c-1.505-0.75-3.287-1.151-4.463,0.363c-0.329,0.422-0.546,0.909-0.702,1.42
			c-0.174,0.573-0.382,1.129-0.575,1.698c-0.407,1.203-0.635,2.507-1.334,3.585c-0.473,0.729-1.194,1.26-2.02,1.514
			c-1.015,0.314-1.906,0.099-2.874-0.209c-1.486-0.473-2.973-0.94-4.46-1.409c-0.433-0.138-0.866-0.273-1.299-0.41
			c-0.368-0.116-0.809-0.698-1.004-1.021c-0.227-0.375-0.226-0.797-0.005-1.168c0.423-0.718,1.264-0.759,1.98-0.604
			c1.127,0.242,2.224,0.624,3.334,0.93c0.865,0.238,2.006,0.647,2.827,0.092c0.499-0.338,0.786-0.979,0.94-1.545
			c0.792-2.916,1.425-5.875,2.176-8.803c0.306-1.189,0.654-2.372,0.96-3.564c0.913,0.744,1.893,1.421,2.859,2.089
			c0.483,0.334,1.013,0.629,1.472,0.992c0.274,0.22,0.545,0.438,0.832,0.638c0.108,0.3,0.292,0.571,0.584,0.786
			C30.994,35.414,31.537,35.6,32.002,35.79z M39.256,33.934c-0.518,1.021-1.43,0.85-2.273,0.377
			c-1.156-0.647-2.373-1.22-3.561-1.838c-0.137-0.621-0.547-1.213-1.089-1.623c-1.049-0.794-2.326-1.355-3.477-1.997
			c-0.083-0.047-0.167-0.093-0.25-0.14c-0.067-0.059-0.133-0.121-0.194-0.186c-0.28-0.297-0.499-0.685-0.545-1.095
			c-0.096-0.86,0.595-1.536,1.207-2.026c0.342-0.274-0.022-0.718-0.383-0.648c-0.062,0.012-0.125,0.035-0.184,0.083
			c-0.822,0.658-1.556,1.569-1.431,2.684c0.072,0.643,0.416,1.224,0.872,1.674c0.401,0.396,1,0.622,1.481,0.89
			c0.488,0.273,0.977,0.545,1.465,0.818c0.454,0.253,0.901,0.499,1.257,0.857c0.128,0.129,0.246,0.271,0.345,0.436
			c0.051,0.084,0.078,0.172,0.105,0.259c0.057,0.17,0.074,0.342,0.053,0.51c-0.082,0.679-0.724,1.257-1.489,1.066
			c-0.178-0.044-0.346-0.127-0.507-0.224c-0.131-0.076-0.258-0.16-0.378-0.252c-0.09-0.068-0.176-0.139-0.26-0.207
			c-0.04-0.031-0.08-0.06-0.12-0.091c-0.345-0.27-0.694-0.516-1.063-0.761c-1.054-0.699-2.08-1.442-3.093-2.2
			c-0.242-0.181-0.482-0.365-0.702-0.559c-0.118-0.104-0.229-0.212-0.333-0.324c-0.119-0.128-0.223-0.264-0.316-0.406
			c-0.271-0.413-0.42-0.887-0.329-1.479c0.176-1.143,0.56-2.281,0.888-3.387c0.168-0.568,0.534-2.144,1.271-2.386
			c1.355-0.446,3.99,0.45,5.174,0.624c0.6,0.089,1.203,0.165,1.804,0.231c0.006,0.001,0.012,0.001,0.02,0.001
			c0.001,0,0.006,0.001,0.007,0.001c0.013,0.002,0.051,0.009,0.098,0.023c0.3,0.085,0.508,0.441,0.585,0.856
			c0.214,1.151-0.41,2.351-0.627,3.453c-0.227,1.143-0.251,2.832,0.943,3.481c0.426,0.231,0.926,0.37,1.373,0.545
			c0.758,0.297,1.515,0.593,2.272,0.89c0.003,0.001,0.005,0,0.008,0.001C38.625,32.176,39.734,32.991,39.256,33.934z"/>
	</g>
</g>
</svg>
