<?xml version="1.0" encoding="utf-8"?>
<!-- Generator: Adobe Illustrator 16.0.0, SVG Export Plug-In . SVG Version: 6.00 Build 0)  -->
<!DOCTYPE svg PUBLIC "-//W3C//DTD SVG 1.1//EN" "http://www.w3.org/Graphics/SVG/1.1/DTD/svg11.dtd">
<svg version="1.1" id="Layer_1" xmlns="http://www.w3.org/2000/svg" xmlns:xlink="http://www.w3.org/1999/xlink" x="0px" y="0px"
	 width="50px" height="50px" viewBox="0 0 50 50" enable-background="new 0 0 50 50" xml:space="preserve">
<g>
	<path d="M18.452,30.013c-2.199,0.001-4.467,1.259-4.047,2.069c0.478,0.924,4.106,0.301,5.385,0.65
		c1.816,0.496,3.761,1.58,4.558,2.663C23.326,32.209,20.907,30.012,18.452,30.013z"/>
	<path d="M21.777,29.257c-0.554-2.465-5.917-5.229-6.399-5.508c-2.285-1.319-3.872-2.849-3.872-2.849s2.118,0.609,4.401,1.93
		c0.483,0.279,0.927,0.568,1.341,0.85c-0.361-1.047-1.269-3.103-3.105-4.161c-2.52-1.456-5.824-0.458-5.824-0.458
		s0.788,3.361,3.308,4.816C13.462,24.936,19.694,26.049,21.777,29.257z"/>
	<path d="M17.076,26.708c-0.275,0.188-0.571,0.38-0.893,0.567c-1.525,0.879-2.939,1.287-2.939,1.287s1.06-1.021,2.584-1.902
		c0.323-0.186,0.639-0.346,0.939-0.491c-0.727-0.14-2.218-0.301-3.442,0.407c-1.684,0.971-2.208,3.213-2.208,3.213
		s2.204,0.667,3.888-0.303C16.229,28.777,16.835,27.406,17.076,26.708z"/>
	<path d="M31.548,30.013c-2.455-0.001-4.874,2.196-5.896,5.383c0.797-1.083,2.741-2.167,4.558-2.663
		c1.278-0.35,4.907,0.273,5.385-0.65C36.015,31.271,33.747,30.014,31.548,30.013z"/>
	<path d="M35.857,19.519c-1.837,1.059-2.744,3.114-3.105,4.161c0.414-0.281,0.857-0.57,1.341-0.85c2.283-1.32,4.401-1.93,4.401-1.93
		s-1.587,1.529-3.872,2.849c-0.482,0.278-5.846,3.043-6.399,5.508c2.083-3.208,8.315-4.321,10.151-5.38
		c2.52-1.455,3.308-4.816,3.308-4.816S38.377,18.063,35.857,19.519z"/>
	<path d="M36.675,26.576c-1.225-0.708-2.716-0.547-3.442-0.407c0.301,0.146,0.616,0.306,0.939,0.491
		c1.524,0.881,2.584,1.902,2.584,1.902s-1.414-0.408-2.939-1.287c-0.321-0.188-0.617-0.379-0.893-0.567
		c0.241,0.698,0.847,2.069,2.071,2.778c1.684,0.97,3.888,0.303,3.888,0.303S38.358,27.547,36.675,26.576z"/>
	<path d="M36.245,16.088c-5.565-1.018-11.244,5.679-11.244,5.679s-6.86-6.224-11.245-5.679c8.426,4.424,11.245,20.748,11.245,20.748
		S25.829,22.168,36.245,16.088z"/>
	<circle cx="25.001" cy="15.983" r="2.82"/>
</g>
</svg>
