<?xml version="1.0" encoding="utf-8"?>
<!-- Generator: Adobe Illustrator 16.0.4, SVG Export Plug-In . SVG Version: 6.00 Build 0)  -->
<!DOCTYPE svg PUBLIC "-//W3C//DTD SVG 1.1//EN" "http://www.w3.org/Graphics/SVG/1.1/DTD/svg11.dtd">
<svg version="1.1" id="Layer_1" xmlns="http://www.w3.org/2000/svg" xmlns:xlink="http://www.w3.org/1999/xlink" x="0px" y="0px"
	 width="50px" height="50px" viewBox="0 0 50 50" enable-background="new 0 0 50 50" xml:space="preserve">
<path d="M35.87,30.107l-2.103-0.027l0.026-2.103c0.004-0.276-0.218-0.504-0.493-0.507l-3.33-0.043
	c3.307-2.656,4.123-7.457,1.75-11.078c-1.238-1.887-3.16-3.151-5.324-3.588l0.053-0.522c0.308-0.171,0.505-0.44,0.535-0.751
	c0.035-0.33-0.12-0.654-0.424-0.888c-0.24-0.185-0.561-0.306-0.902-0.341c-0.458-0.044-0.897,0.064-1.194,0.306
	c-0.203,0.167-0.33,0.392-0.354,0.634c-0.029,0.311,0.109,0.614,0.375,0.842l-0.055,0.563c-1.031,0.038-2.035,0.263-2.977,0.667
	l-0.505-0.769c0.251-0.489,0.257-0.985,0.004-1.372c-0.451-0.689-1.562-0.734-2.526-0.101c-0.964,0.632-1.365,1.668-0.914,2.357
	c0.252,0.386,0.709,0.581,1.26,0.543l0.477,0.727c-3.081,2.696-3.792,7.326-1.484,10.845c0.447,0.684,0.993,1.276,1.601,1.789
	l-2.513-0.033c-0.002,0-0.004,0-0.006,0c-0.131,0-0.257,0.051-0.35,0.143c-0.096,0.092-0.148,0.219-0.15,0.352l-0.027,2.104
	l-2.102-0.027c-0.003,0-0.005,0-0.007,0c-0.272,0-0.496,0.22-0.5,0.494l-0.078,6.072c-0.002,0.133,0.05,0.261,0.142,0.355
	c0.094,0.095,0.221,0.149,0.353,0.151l2.103,0.026l-0.026,2.104c-0.004,0.275,0.218,0.503,0.493,0.506l4.018,0.052
	c0.003,0,0.006,0,0.008,0c0.129,0,0.256-0.051,0.348-0.142c0.097-0.092,0.15-0.219,0.152-0.353l0.047-3.668l7.415,0.096
	l-0.047,3.668c-0.005,0.275,0.217,0.503,0.492,0.506l4.018,0.052c0.004,0,0.006,0,0.008,0c0.13,0,0.256-0.051,0.349-0.142
	c0.097-0.093,0.149-0.22,0.151-0.353l0.027-2.103l2.102,0.026c0.003,0,0.005,0,0.007,0c0.13,0,0.256-0.051,0.349-0.142
	c0.096-0.092,0.149-0.219,0.151-0.352l0.077-6.073C36.367,30.337,36.145,30.11,35.87,30.107z M25.557,11.254
	c0.182,0.019,0.308,0.077,0.377,0.126c-0.021,0.009-0.047,0.019-0.08,0.027c-0.162,0.043-0.289,0.165-0.345,0.319
	c-0.021-0.162-0.123-0.307-0.273-0.381c-0.029-0.015-0.053-0.029-0.072-0.043C25.241,11.269,25.375,11.235,25.557,11.254z
	 M19.435,13.116c-0.115-0.174-0.32-0.261-0.528-0.213c-0.289,0.067-0.505,0.016-0.558-0.064c-0.091-0.138,0.078-0.613,0.627-0.973
	c0.549-0.36,1.051-0.325,1.142-0.188c0.053,0.081,0.014,0.297-0.163,0.538c-0.123,0.168-0.129,0.396-0.016,0.57l0.621,0.944
	c-0.131,0.076-0.268,0.136-0.395,0.219c-0.044,0.029-0.082,0.062-0.125,0.091L19.435,13.116z M18.599,24.955
	c-2.22-3.387-1.271-7.948,2.115-10.169c1.2-0.787,2.592-1.204,4.021-1.204c2.489,0,4.788,1.24,6.149,3.317
	c2.221,3.387,1.271,7.95-2.115,10.17c-1.199,0.788-2.59,1.204-4.02,1.204C22.261,28.272,19.962,27.032,18.599,24.955z M24.75,29.272
	c1.417,0,2.79-0.379,4.024-1.064l-0.043,3.373l-7.415-0.095l0.037-2.946C22.407,29.007,23.556,29.272,24.75,29.272z M14.64,35.908
	l0.063-5.073l1.603,0.021l-0.064,5.072L14.64,35.908z M17.208,38.544l0.131-10.279l3.019,0.04l-0.131,10.278L17.208,38.544z
	 M21.277,34.428l0.025-1.941l7.415,0.095l-0.025,1.942L21.277,34.428z M29.641,38.703l0.131-10.278l3.018,0.039l-0.131,10.278
	L29.641,38.703z M35.293,36.173l-1.604-0.021l0.064-5.073l1.604,0.021L35.293,36.173z M19.259,24.523
	c-1.517-2.312-1.447-5.37,0.172-7.612c0.16-0.226,0.475-0.273,0.697-0.113c0.225,0.162,0.273,0.474,0.112,0.698
	c-1.377,1.908-1.437,4.511-0.146,6.478c0.836,1.275,2.118,2.149,3.611,2.458c1.498,0.312,3.02,0.021,4.293-0.814
	c1.275-0.836,2.148-2.12,2.459-3.613c0.311-1.494,0.021-3.019-0.814-4.293c-0.151-0.231-0.088-0.541,0.144-0.692
	s0.54-0.088,0.692,0.144c0.982,1.499,1.322,3.291,0.959,5.045c-0.365,1.755-1.392,3.263-2.891,4.246
	c-1.105,0.726-2.373,1.101-3.667,1.102c-0.458,0-0.92-0.047-1.379-0.143C21.75,27.047,20.242,26.021,19.259,24.523z M23.769,20.078
	c-0.103,0.146-0.176,0.312-0.213,0.493c-0.072,0.351-0.006,0.708,0.19,1.009c0.25,0.379,0.67,0.605,1.123,0.605
	c0.262,0,0.517-0.076,0.736-0.22c0.617-0.407,0.791-1.24,0.386-1.857c-0.298-0.453-0.865-0.664-1.382-0.571l-2.729-4.16
	c-0.152-0.232-0.463-0.295-0.691-0.144c-0.23,0.151-0.295,0.461-0.145,0.692L23.769,20.078z M25.058,21.128
	c-0.156,0.101-0.375,0.054-0.475-0.098c-0.05-0.076-0.066-0.168-0.048-0.257s0.069-0.166,0.146-0.216
	c0.057-0.037,0.121-0.056,0.188-0.056c0.115,0,0.224,0.058,0.287,0.154C25.259,20.813,25.214,21.025,25.058,21.128z"/>
</svg>
