<?xml version="1.0" encoding="utf-8"?>
<!-- Generator: Adobe Illustrator 16.0.4, SVG Export Plug-In . SVG Version: 6.00 Build 0)  -->
<!DOCTYPE svg PUBLIC "-//W3C//DTD SVG 1.1//EN" "http://www.w3.org/Graphics/SVG/1.1/DTD/svg11.dtd">
<svg version="1.1" id="Layer_1" xmlns="http://www.w3.org/2000/svg" xmlns:xlink="http://www.w3.org/1999/xlink" x="0px" y="0px"
	 width="50px" height="50px" viewBox="0 0 50 50" enable-background="new 0 0 50 50" xml:space="preserve">
<path d="M33.588,20.801c0-1.152,0.938-2.09,2.09-2.09s2.09,0.938,2.09,2.09c0,1.153-0.938,2.09-2.09,2.09
	S33.588,21.955,33.588,20.801z M20.977,27.146H14.63c-0.513,0-0.929,0.416-0.929,0.93c0,0.512,0.416,0.928,0.929,0.928h7.274
	c0.514,0,0.929-0.416,0.929-0.928v-7.74h7.583v8.048c0,0.516,0.416,0.93,0.93,0.93s0.93-0.414,0.93-0.93v-8.977
	c0-0.513-0.416-0.928-0.93-0.928H8.595c-0.514,0-0.929,0.415-0.929,0.928c0,0.515,0.415,0.929,0.929,0.929h12.382V27.146
	L20.977,27.146z M41.404,29.662H9.716c-0.513,0-0.928,0.416-0.928,0.93s0.415,0.928,0.928,0.928h31.688
	c0.514,0,0.93-0.414,0.93-0.928S41.918,29.662,41.404,29.662z"/>
</svg>
